<?xml version="1.0" encoding="UTF-8" standalone="no"?>
<!-- Created with Inkscape (http://www.inkscape.org/) -->

<svg
   xmlns:dc="http://purl.org/dc/elements/1.1/"
   xmlns:cc="http://creativecommons.org/ns#"
   xmlns:rdf="http://www.w3.org/1999/02/22-rdf-syntax-ns#"
   xmlns:svg="http://www.w3.org/2000/svg"
   xmlns="http://www.w3.org/2000/svg"
   xmlns:sodipodi="http://sodipodi.sourceforge.net/DTD/sodipodi-0.dtd"
   xmlns:inkscape="http://www.inkscape.org/namespaces/inkscape"
   id="svg2"
   version="1.1"
   inkscape:version="0.91 r13725"
   width="26.000113"
   height="26.000113"
   viewBox="0 0 26.000113 26.000113"
   sodipodi:docname="kitchen_fish_icon_2.svg"
   inkscape:export-filename="H:\otherProjects\carp_browser\data\kitchen_fish_icon_2"
   inkscape:export-xdpi="300"
   inkscape:export-ydpi="300">
  <metadata
     id="metadata8">
    <rdf:RDF>
      <cc:Work
         rdf:about="">
        <dc:format>image/svg+xml</dc:format>
        <dc:type
           rdf:resource="http://purl.org/dc/dcmitype/StillImage" />
        <dc:title></dc:title>
      </cc:Work>
    </rdf:RDF>
  </metadata>
  <defs
     id="defs6" />
  <sodipodi:namedview
     pagecolor="#34495e"
     bordercolor="#666666"
     borderopacity="1"
     objecttolerance="10"
     gridtolerance="10"
     guidetolerance="10"
     inkscape:pageopacity="1"
     inkscape:pageshadow="2"
     inkscape:window-width="1136"
     inkscape:window-height="765"
     id="namedview4"
     showgrid="false"
     inkscape:zoom="9.0768838"
     inkscape:cx="14.919597"
     inkscape:cy="17.186515"
     inkscape:window-x="638"
     inkscape:window-y="160"
     inkscape:window-maximized="0"
     inkscape:current-layer="svg2" />
  <path
     style="fill:#bdc3c7;fill-opacity:1"
     d="m 12.884534,22.456604 c -0.05862,-0.07063 -0.04403,-0.149863 0.10048,-0.545901 0.480092,-1.315681 0.526834,-1.475123 0.551746,-1.882053 0.03123,-0.510209 -0.04498,-0.831256 -0.204356,-0.860876 C 11.293874,18.78892 9.4942082,18.031239 7.5637335,16.739096 7.0147421,16.371634 5.9726063,15.554831 5.5373431,15.150855 5.3337927,14.961936 5.159791,14.816022 5.1506721,14.8266 5.1415521,14.83718 5.0855881,14.977293 5.0263048,15.137966 4.8745423,15.549281 4.6379939,16.007621 4.3719139,16.405925 4.1037755,16.80731 3.4268604,17.473372 3.0273355,17.728945 2.3676,18.150973 1.5545832,18.403175 0.67493766,18.45867 0.23398518,18.48649 0.15338438,18.4791 0.07825538,18.40397 -0.04888832,18.276828 -0.02876782,18.121942 0.15162388,17.839186 0.80721136,16.811585 1.3096522,15.59381 1.5437876,14.464972 1.6596999,13.906123 1.6602375,12.953065 1.5449329,12.434444 1.3633043,11.617509 0.97109646,10.661673 0.38605138,9.6101744 c -0.3244053,-0.583052 -0.3696636,-0.727276 -0.2706893,-0.862602 0.060692,-0.08298 0.1250499,-0.09494 0.44324458,-0.08234 1.06939794,0.04234 2.18585974,0.586815 3.13162594,1.5272256 0.4432665,0.440755 1.0401646,1.19584 1.3000442,1.644573 0.076832,0.132666 0.1516086,0.241212 0.1661692,0.241212 0.01456,0 0.1666374,-0.130048 0.3379492,-0.288995 0.7876917,-0.730839 2.2797457,-1.8390906 3.2676763,-2.4271296 0.301247,-0.179309 0.632645,-0.383448 0.7364417,-0.453643 0.355522,-0.240431 0.5983928,-0.774943 0.5983928,-1.31695 0,-0.617309 -0.2403178,-1.164137 -0.9619395,-2.188841 -0.254841,-0.361875 -0.456557,-0.693224 -0.448258,-0.736331 0.0134,-0.06958 0.40812,-0.07994 3.5183195,-0.09228 3.470719,-0.01377 3.506024,-0.01289 3.804233,0.09488 0.998966,0.36103 2.112162,1.433979 2.625193,2.530281 0.112122,0.239597 0.221782,0.469697 0.243688,0.511335 0.02191,0.04164 0.208858,0.12499 0.41545,0.185227 2.450163,0.714402 4.541286,2.3248176 5.875733,4.5250166 0.403781,0.665742 0.503213,0.877113 0.574134,1.220475 0.08492,0.411165 -0.0051,0.705717 -0.392843,1.286048 -0.876302,1.311387 -1.984395,2.270348 -3.485524,3.016427 -1.053368,0.523536 -2.065987,0.844604 -3.435702,1.089346 -0.318814,0.05697 -0.583267,0.109329 -0.587672,0.116362 -0.0044,0.007 -0.04939,0.127045 -0.09996,0.266694 -0.285046,0.787144 -1.249139,1.907804 -2.312803,2.688398 -0.591635,0.434184 -0.593387,0.434663 -1.591375,0.434663 -0.754941,0 -0.894524,-0.0121 -0.953051,-0.08262 z m 7.952653,-7.654245 c 0.359052,-0.09568 0.562191,-0.211356 0.814864,-0.464029 1.042076,-1.042076 0.495814,-2.797839 -0.953856,-3.065825 -1.044521,-0.19309 -2.04555,0.599396 -2.110815,1.671072 -0.07442,1.221931 1.075238,2.171771 2.249807,1.858782 z m -0.776034,-1.082 c -0.684801,-0.337525 -0.45256,-1.389176 0.309322,-1.400694 0.437424,-0.0066 0.745467,0.294323 0.74582,0.728612 4.57e-4,0.552988 -0.565448,0.913442 -1.055142,0.672082 z"
     id="path4138"
     inkscape:connector-curvature="0" />
</svg>
