<?xml version="1.0" encoding="UTF-8" standalone="no"?>
<!-- Created with Inkscape (http://www.inkscape.org/) -->

<svg
   xmlns:dc="http://purl.org/dc/elements/1.1/"
   xmlns:cc="http://creativecommons.org/ns#"
   xmlns:rdf="http://www.w3.org/1999/02/22-rdf-syntax-ns#"
   xmlns:svg="http://www.w3.org/2000/svg"
   xmlns="http://www.w3.org/2000/svg"
   xmlns:sodipodi="http://sodipodi.sourceforge.net/DTD/sodipodi-0.dtd"
   xmlns:inkscape="http://www.inkscape.org/namespaces/inkscape"
   id="svg2"
   version="1.1"
   inkscape:version="0.91 r13725"
   width="29.999363"
   height="20.916002"
   viewBox="0 0 29.999364 20.916002"
   sodipodi:docname="kitchen_fish_icon_2.svg"
   inkscape:export-filename="H:\otherProjects\carp_browser\data\kitchen_fish_icon_2.png"
   inkscape:export-xdpi="129.00275"
   inkscape:export-ydpi="129.00275">
  <metadata
     id="metadata8">
    <rdf:RDF>
      <cc:Work
         rdf:about="">
        <dc:format>image/svg+xml</dc:format>
        <dc:type
           rdf:resource="http://purl.org/dc/dcmitype/StillImage" />
        <dc:title></dc:title>
      </cc:Work>
    </rdf:RDF>
  </metadata>
  <defs
     id="defs6" />
  <sodipodi:namedview
     pagecolor="#ffffff"
     bordercolor="#666666"
     borderopacity="1"
     objecttolerance="10"
     gridtolerance="10"
     guidetolerance="10"
     inkscape:pageopacity="0"
     inkscape:pageshadow="2"
     inkscape:window-width="1136"
     inkscape:window-height="765"
     id="namedview4"
     showgrid="false"
     inkscape:zoom="4.5384419"
     inkscape:cx="15.679376"
     inkscape:cy="34.462283"
     inkscape:window-x="254"
     inkscape:window-y="293"
     inkscape:window-maximized="0"
     inkscape:current-layer="svg2"
     fit-margin-top="0"
     fit-margin-left="0"
     fit-margin-right="0"
     fit-margin-bottom="0"
     showborder="true" />
  <path
     style="fill:#bdc3c7;fill-opacity:1"
     d="m 14.999295,20.819835 c -0.06823,-0.0822 -0.05125,-0.174418 0.116944,-0.63535 0.558758,-1.531262 0.613158,-1.71683 0.642153,-2.190438 0.03635,-0.593809 -0.05235,-0.967462 -0.237841,-1.001935 -2.372555,-0.440931 -4.467106,-1.322762 -6.7138998,-2.82663 -0.638946,-0.427673 -1.851842,-1.378314 -2.358426,-1.848483 -0.236903,-0.219875 -0.439416,-0.389698 -0.450029,-0.377387 -0.01062,0.01231 -0.07575,0.175385 -0.144745,0.362386 -0.176631,0.47871 -0.451938,1.012152 -0.761617,1.475721 -0.312075,0.467154 -1.099906,1.242353 -1.564895,1.539804 -0.767837,0.49118 -1.714071,0.784706 -2.73785198,0.849295 -0.513205,0.03238 -0.607013,0.02378 -0.694452,-0.06366 -0.147977,-0.147975 -0.12456,-0.328239 0.08539,-0.657326 0.76301,-1.19598 1.34777798,-2.613294 1.62027798,-3.927098 0.134905,-0.65042 0.135531,-1.7596417 0.0013,-2.3632417 -0.21139,-0.950794 -0.667863,-2.06325 -1.34877098,-3.287043 -0.377561,-0.678588 -0.430235,-0.846444 -0.315043,-1.003943 0.07064,-0.09658 0.14554,-0.110497 0.515873,-0.09583 1.24462398,0.04928 2.54402498,0.682968 3.64475998,1.77747 0.515899,0.512975 1.210602,1.391785 1.513064,1.914045 0.08942,0.154404 0.176451,0.280736 0.193397,0.280736 0.01694,0 0.193942,-0.151356 0.393324,-0.336348 0.91676,-0.850591 2.653295,-2.140436 3.8031038,-2.824829 0.350608,-0.20869 0.736307,-0.446278 0.857111,-0.527974 0.413777,-0.279828 0.696443,-0.901922 0.696443,-1.53274 0,-0.718459 -0.279695,-1.354888 -1.119558,-2.54749505 -0.296599,-0.421171 -0.531367,-0.806813 -0.521708,-0.856984 0.01559,-0.08098 0.474992,-0.09304 4.094816,-0.1074 4.039416,-0.01603 4.080506,-0.015 4.427578,0.110426 1.162652,0.420187 2.458252,1.66894505 3.055346,2.94488305 0.130494,0.278856 0.258122,0.546659 0.283617,0.59512 0.0255,0.04846 0.243081,0.14547 0.483524,0.215577 2.851636,0.831461 5.285401,2.705752 6.838505,5.266467 0.469943,0.774827 0.585668,1.0208327 0.668209,1.4204557 0.09884,0.478537 -0.0059,0.821353 -0.457212,1.496774 -1.019889,1.526265 -2.309549,2.642358 -4.056647,3.510686 -1.225968,0.60932 -2.404511,0.982997 -3.998661,1.267842 -0.371054,0.0663 -0.678839,0.127242 -0.683965,0.135428 -0.0051,0.0081 -0.05748,0.147862 -0.116339,0.310393 -0.331753,0.916122 -1.453818,2.220409 -2.691769,3.128907 -0.688578,0.505328 -0.690617,0.505886 -1.852132,0.505886 -0.878642,0 -1.041096,-0.01408 -1.109213,-0.09616 z m 9.25574,-8.908436 c 0.417885,-0.111358 0.654309,-0.245988 0.948384,-0.540063 1.212826,-1.212826 0.577056,-3.2562797 -1.110151,-3.5681767 -1.215672,-0.224729 -2.380725,0.69761 -2.456684,1.944886 -0.08661,1.4221517 1.251422,2.5276277 2.618451,2.1633537 z m -0.903192,-1.259292 c -0.797009,-0.39283 -0.526714,-1.6167997 0.360007,-1.6302047 0.509098,-0.0077 0.867616,0.342549 0.868026,0.847999 4.97e-4,0.6435977 -0.658099,1.0631147 -1.228033,0.7822057 z"
     id="path4138"
     inkscape:connector-curvature="0" />
</svg>
