<?xml version="1.0" encoding="UTF-8" standalone="no"?>
<!-- Created with Inkscape (http://www.inkscape.org/) -->

<svg
   xmlns:dc="http://purl.org/dc/elements/1.1/"
   xmlns:cc="http://creativecommons.org/ns#"
   xmlns:rdf="http://www.w3.org/1999/02/22-rdf-syntax-ns#"
   xmlns:svg="http://www.w3.org/2000/svg"
   xmlns="http://www.w3.org/2000/svg"
   xmlns:sodipodi="http://sodipodi.sourceforge.net/DTD/sodipodi-0.dtd"
   xmlns:inkscape="http://www.inkscape.org/namespaces/inkscape"
   id="svg2"
   version="1.1"
   inkscape:version="0.91 r13725"
   width="288.46878"
   height="287.59509"
   viewBox="0 0 288.46878 287.59509"
   sodipodi:docname="search_icon.svg"
   inkscape:export-filename="H:\otherProjects\carp_browser\data\search_icon.png"
   inkscape:export-xdpi="300.10944"
   inkscape:export-ydpi="300.10944">
  <metadata
     id="metadata8">
    <rdf:RDF>
      <cc:Work
         rdf:about="">
        <dc:format>image/svg+xml</dc:format>
        <dc:type
           rdf:resource="http://purl.org/dc/dcmitype/StillImage" />
        <dc:title></dc:title>
      </cc:Work>
    </rdf:RDF>
  </metadata>
  <defs
     id="defs6" />
  <sodipodi:namedview
     pagecolor="#ffffff"
     bordercolor="#666666"
     borderopacity="1"
     objecttolerance="10"
     gridtolerance="10"
     guidetolerance="10"
     inkscape:pageopacity="0"
     inkscape:pageshadow="2"
     inkscape:window-width="1119"
     inkscape:window-height="747"
     id="namedview4"
     showgrid="false"
     inkscape:zoom="0.57943472"
     inkscape:cx="323.10705"
     inkscape:cy="321.35968"
     inkscape:window-x="451"
     inkscape:window-y="134"
     inkscape:window-maximized="0"
     inkscape:current-layer="svg2"
     fit-margin-top="0"
     fit-margin-left="0"
     fit-margin-right="0"
     fit-margin-bottom="0" />
  <path
     style="fill:#626e6f;fill-opacity:1"
     d="m 255.17467,286.35928 c -2.35302,-0.73477 -5.95302,-2.61162 -8,-4.17078 -2.04698,-1.55916 -18.12179,-16.80644 -35.72179,-33.88283 -17.6,-17.0764 -34.60454,-33.47584 -37.78787,-36.4432 l -5.78786,-5.39521 -4.71214,2.32234 C 124.68564,227.7539 81.195488,225.0902 47.355225,201.69644 5.2811768,172.61067 -11.428543,116.05026 8.1528868,69.001182 30.214832,15.992079 87.048146,-11.408827 141.94067,4.4984028 c 19.10271,5.5357462 34.79308,15.1186642 48.8793,29.8531062 17.84389,18.665037 27.31639,39.389199 30.18596,66.041561 2.22038,20.62274 -3.44722,48.39336 -13.04615,63.92476 -1.10379,1.78598 -2.0069,3.72513 -2.0069,4.30922 0,0.58409 17.26107,17.77716 38.35793,38.20682 21.09686,20.42965 39.31177,38.84197 40.47758,40.91626 6.15696,10.95482 4.51782,22.82562 -4.38356,31.74622 -7.50404,7.52024 -15.85268,9.79118 -25.23016,6.86293 z M 130.95288,173.98805 c 9.60355,-3.1117 18.58517,-8.77259 26.48467,-16.69262 13.01491,-13.04876 18.53747,-25.51062 19.27385,-43.49222 0.56561,-13.811586 -0.83808,-20.53526 -6.8461,-32.792881 C 153.03582,46.674632 109.38551,34.041848 76.369518,53.951823 69.366071,58.175183 57.382492,70.586851 53.127061,78.024568 34.312409,110.90915 47.365272,153.04575 81.627836,170.02934 c 11.599549,5.74978 16.679879,6.80535 30.825044,6.4047 8.73462,-0.2474 13.76875,-0.91299 18.5,-2.44599 z"
     id="path4138"
     inkscape:connector-curvature="0" />
</svg>
