<?xml version="1.0" encoding="UTF-8" standalone="no"?>
<!-- Created with Inkscape (http://www.inkscape.org/) -->

<svg
   xmlns:dc="http://purl.org/dc/elements/1.1/"
   xmlns:cc="http://creativecommons.org/ns#"
   xmlns:rdf="http://www.w3.org/1999/02/22-rdf-syntax-ns#"
   xmlns:svg="http://www.w3.org/2000/svg"
   xmlns="http://www.w3.org/2000/svg"
   xmlns:sodipodi="http://sodipodi.sourceforge.net/DTD/sodipodi-0.dtd"
   xmlns:inkscape="http://www.inkscape.org/namespaces/inkscape"
   id="svg2"
   version="1.1"
   inkscape:version="0.91 r13725"
   width="292.46591"
   height="340"
   viewBox="0 0 292.46591 340"
   sodipodi:docname="Virus2c.svg"
   inkscape:export-filename="H:\otherProjects\carp_browser\data\Virus2c.png"
   inkscape:export-xdpi="300"
   inkscape:export-ydpi="300">
  <metadata
     id="metadata8">
    <rdf:RDF>
      <cc:Work
         rdf:about="">
        <dc:format>image/svg+xml</dc:format>
        <dc:type
           rdf:resource="http://purl.org/dc/dcmitype/StillImage" />
        <dc:title></dc:title>
      </cc:Work>
    </rdf:RDF>
  </metadata>
  <defs
     id="defs6" />
  <sodipodi:namedview
     pagecolor="#f9f9f9"
     bordercolor="#666666"
     borderopacity="1"
     objecttolerance="10"
     gridtolerance="10"
     guidetolerance="10"
     inkscape:pageopacity="0"
     inkscape:pageshadow="2"
     inkscape:window-width="1194"
     inkscape:window-height="824"
     id="namedview4"
     showgrid="false"
     inkscape:zoom="0.9744654"
     inkscape:cx="105.66354"
     inkscape:cy="169.57493"
     inkscape:window-x="249"
     inkscape:window-y="144"
     inkscape:window-maximized="0"
     inkscape:current-layer="svg2"
     fit-margin-top="0"
     fit-margin-left="0"
     fit-margin-right="0"
     fit-margin-bottom="0" />
  <path
     style="fill:#bdc3c7;fill-opacity:1"
     d="M 109.89676,320.40048 C 67.95026,295.54251 54.78156,287.77069 24.49738,270 L 0,255.625 0.28679,170.03897 0.57358,84.452948 19.32359,73.298073 C 36.95409,62.809215 55.90264,51.594139 117.51331,15.18251 132.86973,6.1069302 144.52872,0 146.49883,0 c 1.95539,0 12.09661,5.2632302 24.93527,12.941246 11.90172,7.117685 34.29574,20.44328 49.76449,29.612435 15.46875,9.169154 37.68749,22.360092 49.37499,29.313195 l 21.25,12.642006 0.32116,85.224408 0.32118,85.22441 -4.69618,2.96034 c -5.46761,3.44663 -107.51566,64.05394 -125.94,74.79695 C 154.95813,336.72175 147.90357,340 146.15292,340 c -1.86912,0 -16.83496,-8.09031 -36.25616,-19.59952 z M 148.69858,336.25 c 1.42671,-0.92201 0.92136,-1.2163 -2.11373,-1.23086 -2.1938,-0.01 -4.33637,-0.58164 -4.76127,-1.26914 -0.4249,-0.6875 -1.44248,-1.24629 -2.26128,-1.24176 -0.8188,0.005 0.19878,1.12582 2.26128,2.49176 4.31204,2.85575 4.3731,2.86685 6.875,1.25 z m 5,-3.19877 c 0,-0.30318 -0.5625,-0.55123 -1.25,-0.55123 -0.6875,0 -1.25,0.5957 -1.25,1.32377 0,0.72808 0.5625,0.97613 1.25,0.55123 0.6875,-0.4249 1.25,-1.0206 1.25,-1.32377 z M 142.44858,300 c 0,-17.94133 -0.46053,-28.75 -1.22495,-28.75 -2.81646,0 -47.03054,-5.13895 -48.46254,-5.63275 -2.2691,-0.78244 -2.02618,-0.34236 2.81146,5.09319 2.405666,2.70301 4.198636,5.4419 3.984366,6.08643 -0.7971,2.39772 -3.547006,2.12663 -4.211696,-0.41517 -0.37852,-1.44744 -1.46635,-2.6317 -2.41742,-2.6317 -0.95106,0 -1.72921,-0.53353 -1.72921,-1.1856 0,-0.65208 -1.2947,-2.5826 -2.8771,-4.29004 -2.70701,-2.92091 -4.60993,-3.29425 -32.1875,-6.31489 -16.12072,-1.76573 -30.9979,-3.49282 -33.0604,-3.83796 -3.47785,-0.58198 -3.34177,-0.36705 1.875,2.96174 15.56825,9.934 105.52636,62.55704 106.04814,62.03527 0.33175,-0.33176 -0.38596,-1.6962 -1.59494,-3.03209 -1.23622,-1.36602 -1.78651,-3.09488 -1.25752,-3.95081 0.56586,-0.91558 0.41891,-1.19948 -0.36889,-0.7126 -0.72021,0.44512 -2.63524,-0.91676 -4.25563,-3.02639 -1.6204,-2.10964 -4.76386,-5.90254 -6.98549,-8.42867 -2.22162,-2.52612 -3.77494,-5.3253 -3.45181,-6.22039 0.32312,-0.89507 0.0916,-1.32093 -0.51452,-0.94633 -0.6061,0.3746 -2.42778,-1.05103 -4.04817,-3.16804 -1.6204,-2.11701 -3.70393,-4.65875 -4.63008,-5.64829 -0.92615,-0.98953 -1.36568,-2.62845 -0.97673,-3.64204 0.75419,-1.96538 3.28564,-2.5628 3.28564,-0.7754 0,0.58711 1.26563,2.45722 2.8125,4.15579 3.6776,4.03828 8.58755,10.13568 10.93749,13.5827 1.03125,1.5127 2.57813,3.48501 3.4375,4.38292 0.85938,0.8979 1.5625,1.92841 1.5625,2.29002 0,0.3616 1.26563,1.97492 2.8125,3.58516 5.93329,6.17632 12.11681,14.12667 12.1514,15.62344 0.0199,0.85937 0.5986,1.5625 1.2861,1.5625 0.7971,0 1.25,-10.41666 1.25,-28.75 z M 99.158266,281.89492 c -1.12047,-2.91988 1.748114,-5.6265 3.322054,-3.13447 0.6477,1.0255 1.01099,2.39189 0.80733,3.03642 -0.67398,2.13288 -3.324404,2.19581 -4.129384,0.098 z m 53.290314,44.94085 c 0,-1.05283 0.84375,-2.23801 1.875,-2.63373 1.03125,-0.39574 1.875,-1.54433 1.875,-2.55243 0,-1.08451 0.89319,-1.64835 2.1875,-1.38087 1.20312,0.24862 2.11749,1.36622 2.0319,2.48356 -0.12548,1.63837 0.96305,1.35656 5.625,-1.45626 7.92849,-4.78371 93.09811,-55.10116 100.52456,-59.38902 3.29669,-1.90341 5.82794,-3.60598 5.625,-3.78347 -0.20292,-0.1775 -14.99396,1.32757 -32.86895,3.34459 -29.60728,3.34089 -32.6961,3.91161 -34.70314,6.41208 -2.12082,2.64223 -2.26919,2.65879 -3.97122,0.44319 -1.70091,-2.21414 -2.47209,-2.22516 -20.29687,-0.2903 -10.19083,1.10621 -21.20066,2.33533 -24.46628,2.73139 l -5.9375,0.7201 0,28.6327 c 0,18.25514 0.45305,28.6327 1.25,28.6327 0.6875,0 1.25,-0.8614 1.25,-1.91423 z m 7.68971,-7.23218 c -1.1478,-1.38303 -1.04402,-2.12587 0.47285,-3.38477 2.91886,-2.42243 5.60929,0.54504 2.92649,3.22784 -1.65775,1.65775 -2.13546,1.6798 -3.39934,0.15693 z m 3.80743,-4.93082 c -0.96203,-1.15916 -0.17403,-2.89863 2.97288,-6.5625 2.35504,-2.7419 4.7083,-5.54777 5.22949,-6.23527 5.49238,-7.24506 10.09011,-13.04628 12.38355,-15.625 1.5286,-1.71875 3.89346,-4.53125 5.25524,-6.25 2.3209,-2.92929 2.53365,-2.97668 3.39694,-0.75674 0.61541,1.58253 0.2315,2.87241 -1.15714,3.8878 -1.14295,0.83575 -2.09681,2.02004 -2.11969,2.63174 -0.0667,1.78644 -4.60079,6.7372 -6.17005,6.7372 -0.78975,0 -1.12452,0.50382 -0.74394,1.11962 0.38058,0.61579 -1.26067,3.28767 -3.64722,5.9375 -2.38656,2.64983 -4.35225,5.23975 -4.3682,5.75538 -0.016,0.51562 -0.90595,0.9375 -1.97778,0.9375 -1.07182,0 -1.646,0.4899 -1.27593,1.08865 0.37005,0.59876 -0.4405,2.37234 -1.80124,3.94126 -1.36073,1.56894 -2.47405,3.32905 -2.47405,3.91135 0,1.57714 -2.01065,1.27953 -3.50286,-0.51849 z m 29.14441,-37.146 c -0.82273,-1.3312 4.16776,-8.77677 5.88275,-8.77677 2.16419,0 2.58871,4.07247 0.54381,5.21685 -1.13746,0.63656 -2.06811,1.97317 -2.06811,2.97026 0,2.03888 -3.19559,2.47121 -4.35845,0.58966 z M 148.69858,266.875 c 0,-1.04166 -1.11111,-1.875 -2.5,-1.875 -1.38889,0 -2.5,0.83334 -2.5,1.875 0,1.04166 1.11111,1.875 2.5,1.875 1.38889,0 2.5,-0.83334 2.5,-1.875 z m -11.58629,-0.24124 c -1.21621,-0.31692 -2.90371,-0.29609 -3.75,0.0464 -0.84629,0.34241 0.14879,0.60171 2.21129,0.57623 2.0625,-0.0255 2.75493,-0.30562 1.53871,-0.62255 z m 20.57066,0.0125 c -0.90233,-0.36109 -1.98046,-0.31669 -2.39583,0.0986 -0.41536,0.41536 0.32292,0.7108 1.64062,0.65652 1.45619,-0.06 1.75238,-0.35617 0.75521,-0.7552 z m -31.82066,-1.26235 c -1.21621,-0.31692 -2.90371,-0.29609 -3.75,0.0464 -0.84629,0.34241 0.14879,0.60171 2.21129,0.57623 2.0625,-0.0255 2.75493,-0.30562 1.53871,-0.62255 z m 43.07066,0.0125 c -0.90235,-0.36109 -1.98047,-0.31669 -2.39583,0.0986 -0.41537,0.41536 0.32292,0.7108 1.64062,0.65652 1.45619,-0.06 1.75238,-0.35617 0.75521,-0.7552 z m -55.57066,-1.26235 c -1.2162,-0.31692 -2.9037,-0.29609 -3.74999,0.0464 -0.84629,0.34241 0.14879,0.60171 2.21129,0.57623 2.06249,-0.0255 2.75491,-0.30562 1.5387,-0.62255 z m 68.75,0 c -1.21621,-0.31692 -2.90371,-0.29609 -3.75,0.0464 -0.84629,0.34241 0.14879,0.60171 2.21129,0.57623 2.0625,-0.0255 2.75492,-0.30562 1.53871,-0.62255 z m -79.3512,-1.21191 c -0.85937,-0.34676 -2.26562,-0.34676 -3.125004,0 -0.85937,0.34676 -0.15625,0.63049 1.562504,0.63049 1.71875,0 2.42188,-0.28373 1.5625,-0.63049 z m 35.93749,0.28029 c 0,-0.50334 -18.61615,-33.14521 -19.59771,-34.36295 -0.2374,-0.29453 -7.73753,-0.53239 -16.66696,-0.52859 -14.8925,0.006 -16.23532,-0.18198 -16.23532,-2.27699 0,-2.0427 1.18813,-2.28391 11.249996,-2.28391 8.156464,0 11.255264,0.42966 11.269144,1.5625 0.0137,1.11876 0.33236,1.06786 1.12205,-0.17925 0.64617,-1.02045 2.19122,-1.45715 3.73085,-1.05453 1.44537,0.37798 2.62795,0.41503 2.62795,0.0823 0,-1.5362 -26.85303,-46.66106 -27.76719,-46.66106 -0.57002,0 -1.67713,1.40625 -2.46024,3.125 -0.78312,1.71879 -1.89606,3.12504 -2.4732,3.12504 -0.57715,0 -1.04936,1.125 -1.04936,2.5 0,1.375 -0.8261,2.5 -1.83577,2.5 -1.05924,0 -1.55194,0.73964 -1.16478,1.74856 0.36904,0.96172 0.0354,2.14135 -0.74134,2.62143 -0.77677,0.48007 -1.93907,2.25831 -2.58287,3.95165 -0.70856,1.86364 -1.74107,2.7262 -2.61603,2.18545 -0.93184,-0.57592 -1.10518,-0.34274 -0.48781,0.65618 C 74.0221,201.53472 70.12389,210 68.3751,210 c -2.4814,0 -2.04317,-3.90376 1.0686,-9.51925 1.8609,-3.35816 3.74946,-6.387 4.1968,-6.73075 0.44734,-0.34375 1.79481,-2.73438 2.99437,-5.3125 1.19956,-2.57813 2.75032,-4.6875 3.44614,-4.6875 0.69582,0 0.94551,-0.51715 0.55486,-1.14923 -0.39064,-0.63207 -0.002,-1.91944 0.86373,-2.86083 2.40887,-2.61949 4.83757,-7.23674 4.32813,-8.22829 -6.00935,-11.69599 -27.7761,-47.58976 -28.42583,-46.87471 -2.31419,2.54679 -20.00662,49.72029 -18.79863,50.12296 0.73993,0.24664 1.34532,1.49336 1.34532,2.7705 0,1.27713 0.6115,2.69999 1.3589,3.1619 0.74739,0.46191 1.0908,1.86504 0.76313,3.11805 -0.32767,1.253 0.0452,2.52421 0.82861,2.82491 0.7834,0.3007 2.53832,3.85265 3.89982,7.89323 1.3615,4.04059 3.49281,9.47411 4.73624,12.07451 1.24343,2.6004 1.9244,5.27227 1.51327,5.9375 -0.41113,0.66522 -0.16253,1.2095 0.55244,1.2095 0.71498,0 1.65291,1.40625 2.08429,3.125 1.00761,4.01465 2.74854,3.98414 4.2919,-0.0753 0.66919,-1.76013 1.77383,-2.85591 2.45474,-2.43509 0.68091,0.42084 0.96913,0.0328 0.64047,-0.86227 -0.32865,-0.89509 -0.0644,-2.46648 0.58727,-3.49198 0.94242,-1.4831 1.50176,-1.54761 2.734,-0.31536 1.23225,1.23224 0.8593,2.82654 -1.82295,7.79289 -4.02228,7.4475 -4.22424,10.55689 -0.87213,13.42706 1.375,1.17731 2.5,2.79912 2.5,3.60402 0,0.80492 0.84375,1.78724 1.875,2.18298 1.03125,0.39572 1.875,1.26494 1.875,1.93159 0,0.66663 1.69123,3.06373 3.75829,5.32687 2.06705,2.26314 3.57877,4.65333 3.35937,5.31153 -0.75103,2.25308 -3.36573,2.18752 -4.21024,-0.10563 -0.46414,-1.2603 -1.58944,-2.74127 -2.50066,-3.29106 -0.91122,-0.54965 -1.65676,-1.81528 -1.65676,-2.81236 0,-0.99709 -0.84375,-1.81289 -1.875,-1.81289 -1.03125,0 -1.875,-0.78357 -1.875,-1.74126 0,-0.9577 -0.84375,-2.06504 -1.875,-2.46078 -1.03125,-0.39572 -1.875,-1.29965 -1.875,-2.00873 0,-0.70908 -1.16264,-2.45187 -2.58364,-3.87287 -2.04202,-2.04202 -2.95583,-2.27475 -4.35908,-1.11016 -0.97649,0.81043 -2.74984,1.09958 -3.94076,0.64258 -1.19092,-0.457 -1.75069,-0.41628 -1.24391,0.0905 1.22436,1.22436 -13.03207,8.16701 -15.12299,7.36465 -0.8962,-0.34392 -1.28335,-0.0652 -0.86031,0.61922 0.42303,0.68448 -0.25088,1.57538 -1.49758,1.97978 -1.2467,0.4044 -5.73708,2.43036 -9.97862,4.50212 -4.24154,2.07176 -8.31967,3.39122 -9.0625,2.93213 -0.74284,-0.45909 -1.35061,-0.37077 -1.35061,0.19628 0,0.56705 15.46875,2.73027 34.375,4.80714 18.90625,2.07687 34.375,3.33361 34.375,2.79276 0,-0.54085 -0.88499,-0.98336 -1.96665,-0.98336 -1.16405,0 -1.80172,-0.85046 -1.5625,-2.08391 0.59706,-3.07859 3.59388,-3.56355 4.34202,-0.70266 1.11157,4.25062 5.78317,5.53476 30.66716,8.42983 29.40628,3.42122 27.26996,3.22073 27.26996,2.55918 z M 62.44859,226.00177 c 0,-1.93808 1.13189,-2.25177 8.125,-2.25177 5.61404,0 8.1555,0.48287 8.22368,1.5625 0.0789,1.25 0.22479,1.25 0.72917,0 1.01861,-2.52438 5.42215,-1.88591 5.42215,0.78615 0,2.13141 -1.0406,2.3397 -11.25,2.25177 -9.96743,-0.0859 -11.25,-0.35358 -11.25,-2.34865 z m 122.06913,34.07264 c 21.60188,-2.42309 26.03022,-3.70134 27.10858,-7.82496 0.72154,-2.7592 3.13488,-2.94233 4.1433,-0.3144 0.4189,1.09165 -0.19216,2.61854 -1.40199,3.50319 -1.52656,1.11625 6.8029,0.57312 28.90573,-1.88482 17.07763,-1.89911 32.73774,-3.53161 34.80024,-3.62777 3.65686,-0.17051 3.67239,-0.19779 0.625,-1.09841 -1.71875,-0.50795 -2.97044,-1.61869 -2.78153,-2.46832 0.19018,-0.85535 -0.27658,-1.16153 -1.04591,-0.68607 -0.76415,0.47228 -3.73121,-0.26884 -6.59346,-1.64693 -2.86226,-1.37808 -9.56348,-4.58393 -14.89159,-7.12411 -5.32813,-2.54016 -9.6875,-5.11458 -9.6875,-5.72092 0,-0.60634 -0.82379,-0.78632 -1.83064,-0.39995 -1.00684,0.38636 -3.67871,-0.59369 -5.9375,-2.17789 -3.0518,-2.1404 -3.63728,-2.2962 -2.27905,-0.60645 1.60791,2.00035 1.59859,2.44565 -0.0775,3.70116 -1.0479,0.78499 -2.27463,2.41161 -2.72609,3.61474 -0.45143,1.20312 -1.40095,2.1875 -2.11003,2.1875 -0.70908,0 -1.28923,0.84375 -1.28923,1.875 0,1.03125 -0.84375,1.875 -1.875,1.875 -1.03125,0 -1.875,0.81055 -1.875,1.80122 0,2.56525 -2.45635,3.74632 -4.17141,2.00572 -1.10658,-1.12305 -0.98748,-1.82817 0.49887,-2.95359 1.07387,-0.81309 2.32183,-2.46273 2.77328,-3.66585 0.45144,-1.20313 1.40095,-2.1875 2.11004,-2.1875 0.70907,0 1.28922,-0.78358 1.28922,-1.74126 0,-0.9577 0.89053,-2.08299 1.97895,-2.50067 2.89478,-1.11082 1.41974,-3.88307 -2.06606,-3.88307 -1.85271,0 -3.15403,-0.83265 -3.41876,-2.1875 -0.2965,-1.5174 0.36647,-2.1875 2.16422,-2.1875 1.4254,0 2.63606,0.70312 2.69034,1.5625 0.079,1.25 0.22477,1.25 0.72916,0 0.34676,-0.85938 1.56799,-1.57111 2.71381,-1.58164 1.21707,-0.0113 1.55158,-0.40101 0.80447,-0.9375 -2.56394,-1.84116 -5.76782,-8.04297 -5.08043,-9.83427 0.38811,-1.01142 0.21334,-1.53467 -0.38839,-1.16278 -0.60172,0.37189 -1.72721,-0.0867 -2.50108,-1.01922 -1.06518,-1.28345 -0.94039,-2.08269 0.51356,-3.28937 2.21912,-1.84171 2.13745,-1.9001 4.87733,3.48649 1.14677,2.25456 1.73901,4.65913 1.31606,5.34346 -0.42295,0.68435 -0.0739,1.0897 0.77575,0.9008 0.84962,-0.18891 1.91347,1.06278 2.36412,2.78153 0.78418,2.99081 0.88702,2.92372 2.39509,-1.5625 0.86666,-2.57813 2.12781,-4.6875 2.80258,-4.6875 0.67475,0 0.8964,-0.53464 0.49254,-1.18809 -0.40385,-0.65345 0.34584,-3.60657 1.66599,-6.5625 1.32014,-2.95592 2.7384,-6.39444 3.15168,-7.64114 0.41327,-1.2467 1.17726,-2.0057 1.69775,-1.68666 0.52047,0.31904 0.9918,-1.41141 1.04739,-3.84544 0.0556,-2.43402 0.91981,-5.05002 1.92049,-5.81333 1.00069,-0.76332 1.62719,-2.31977 1.39223,-3.45879 -0.23496,-1.13903 0.16644,-2.43785 0.892,-2.88628 0.72556,-0.44842 1.31921,-1.86025 1.31921,-3.13737 0,-1.27714 0.63605,-2.53409 1.41345,-2.79321 1.2885,-0.4295 -16.41601,-47.53363 -18.82878,-50.09535 -1.15743,-1.22889 -27.72629,44.64295 -28.16339,48.62481 -0.17591,1.60254 0.1075,2.64956 0.6299,2.32672 0.52236,-0.32283 2.12176,1.66159 3.55422,4.40983 1.43247,2.74824 2.19163,5.0139 1.68704,5.03481 -0.50459,0.0209 0.067,0.61135 1.27006,1.31211 1.20313,0.70075 2.1875,2.0899 2.1875,3.08699 0,0.99709 0.5625,1.81289 1.25,1.81289 0.6875,0 1.25,1.125 1.25,2.5 0,1.375 0.53611,2.5 1.19135,2.5 2.02465,0 5.57833,8.73032 4.13939,10.16926 -1.52885,1.52885 -6.57274,-5.41552 -11.24485,-15.48176 -1.1966,-2.57813 -2.60545,-4.6875 -3.13076,-4.6875 -0.52533,0 -0.95513,-1.125 -0.95513,-2.5 0,-1.375 -0.58062,-2.5 -1.29027,-2.5 -0.70967,0 -1.75064,-1.24446 -2.31331,-2.76546 -0.90799,-2.45453 -1.67138,-1.64643 -6.78977,7.1875 -3.17172,5.47412 -9.37241,16.14046 -13.77931,23.70296 -4.71287,8.08756 -7.43391,13.95588 -6.60745,14.24993 0.7728,0.27496 1.81836,1.11871 2.32346,1.875 0.65868,0.98624 0.92377,0.97252 0.9375,-0.0485 0.0125,-0.91683 2.91144,-1.42361 8.14414,-1.42361 7.00328,0 8.125,0.31194 8.125,2.25942 0,2.03855 -1.16172,2.23465 -11.88469,2.00606 l -11.88468,-0.25336 -9.55298,16.91756 c -5.25413,9.30465 -9.82096,17.4009 -10.14851,17.99165 -0.32754,0.59075 1.58504,0.72683 4.25016,0.3024 2.66514,-0.42443 14.49557,-1.85412 26.28984,-3.17709 z m 30.85066,-10.78344 c -1.04183,-2.71495 1.60305,-5.26813 3.49618,-3.37499 1.60006,1.60005 0.60882,5.33402 -1.41597,5.33402 -0.73065,0 -1.66675,-0.88156 -2.08021,-1.95903 z m -16.6698,-23.14341 c 0,-1.56422 0.86894,-2.39756 2.5,-2.39756 1.375,0 2.50861,0.70312 2.51914,1.5625 0.015,1.22864 0.2278,1.23402 0.9957,0.0252 0.61611,-0.9699 3.86283,-1.49668 8.79647,-1.42723 6.49971,0.0915 7.75409,0.45183 7.43007,2.1343 -0.31948,1.65899 -2.36121,2.06718 -11.31559,2.26228 -10.01959,0.21832 -10.92579,0.0392 -10.92579,-2.15949 z m -5.9375,36.77459 c -0.85938,-0.34676 -2.26563,-0.34676 -3.125,0 -0.85938,0.34676 -0.15625,0.63049 1.5625,0.63049 1.71875,0 2.42187,-0.28373 1.5625,-0.63049 z M 90.8623,261.63376 c -1.21621,-0.31692 -2.90371,-0.29609 -3.75,0.0464 -0.84629,0.34241 0.14879,0.60171 2.21129,0.57623 2.0625,-0.0255 2.75492,-0.30562 1.53871,-0.62255 z m 113.77378,0.005 c -1.20313,-0.3144 -3.17188,-0.3144 -4.375,0 -1.20313,0.31441 -0.21875,0.57166 2.1875,0.57166 2.40625,0 3.39063,-0.25725 2.1875,-0.57166 z m -122.49999,-1.25 c -1.20312,-0.3144 -3.17187,-0.3144 -4.375,0 -1.20312,0.31441 -0.21875,0.57166 2.1875,0.57166 2.40625,0 3.39063,-0.25725 2.1875,-0.57166 z m 132.47621,-0.005 c -1.21621,-0.31692 -2.90371,-0.29609 -3.75,0.0464 -0.84628,0.34241 0.14879,0.60171 2.21129,0.57623 2.0625,-0.0255 2.75492,-0.30562 1.53871,-0.62255 z m -146.25,-1.25 c -1.21621,-0.31692 -2.90371,-0.29609 -3.75,0.0464 -0.84629,0.34241 0.14879,0.60171 2.21129,0.57623 2.0625,-0.0255 2.75492,-0.30562 1.53871,-0.62255 z m 95.33628,-30.08956 c 0,-0.5479 -2.8125,-0.83405 -6.25,-0.6359 -5.54403,0.31959 -6.25,0.0769 -6.25,-2.14901 0,-1.67595 0.83025,-2.50929 2.5,-2.50929 1.375,0 2.50861,0.70312 2.51914,1.5625 0.0143,1.16754 0.25538,1.19107 0.95372,0.0931 0.51401,-0.80816 3.10351,-1.65191 5.75443,-1.875 l 4.81985,-0.40562 15.47642,-26.66433 c 8.51204,-14.66535 15.47644,-27.24501 15.47644,-27.95479 0,-1.57937 -4.90271,-10.84464 -7.27031,-13.7396 -0.94853,-1.1598 -1.39146,-2.64774 -0.98432,-3.30651 0.40714,-0.65879 -0.10025,-1.52033 -1.12755,-1.91454 -1.0273,-0.39421 -1.86782,-1.57815 -1.86782,-2.63099 0,-1.05282 -0.5625,-1.91422 -1.25,-1.91422 -0.6875,0 -1.25,-1.125 -1.25,-2.5 0,-1.375 -0.53611,-2.5 -1.19135,-2.5 -1.67965,0 -5.45181,-8.35258 -4.48134,-9.92284 0.4475,-0.72406 0.0825,-1.02525 -0.82488,-0.68081 -0.99199,0.37652 -2.84762,-1.70339 -4.75243,-5.32681 l -3.125,-5.94454 -24.375,-0.33665 -24.375,-0.33665 -1.67957,3.80194 c -0.92376,2.09106 -2.35136,4.49255 -3.17243,5.33665 -0.82107,0.84409 -2.48227,3.64409 -3.69157,6.22221 -1.20929,2.57812 -2.82857,4.6875 -3.5984,4.6875 -0.76983,0 -1.06274,0.33694 -0.65093,0.74876 1.23244,1.23244 -4.21541,10.56639 -5.64977,9.6799 -0.77983,-0.48196 -0.94841,-0.21597 -0.4126,0.651 1.19233,1.92921 -4.091754,10.42788 -5.819624,9.35999 -0.822616,-0.50841 -0.968206,-0.23023 -0.3787,0.72362 0.53023,0.85793 -0.0718,3.46106 -1.348726,5.83227 -1.97077,3.6595 -2.06559,4.6683 -0.6516,6.93246 0.91014,1.45736 7.81037,13.33603 15.33386,26.39702 14.95807,25.96772 17.34506,29.74574 17.34506,27.45312 0,-1.09099 3.21827,-1.52814 11.25,-1.52814 10.26084,0 11.25,0.21104 11.25,2.40026 0,2.20404 -0.91005,2.38203 -11.13229,2.17712 -10.78081,-0.21611 -11.09093,-0.14389 -9.8221,2.28723 2.47385,4.74001 15.08478,26.26075 16.31934,27.8492 0.90311,1.162 3.53845,-2.44242 9.80995,-13.41731 4.7163,-8.25336 8.5751,-15.4544 8.5751,-16.0023 z m 62.81251,30.12795 c -0.85938,-0.34676 -2.26563,-0.34676 -3.125,0 -0.85938,0.34676 -0.15625,0.63049 1.5625,0.63049 1.71875,0 2.42187,-0.28373 1.5625,-0.63049 z M 11.82359,255.625 c 0,-2.5843 -0.60155,-3.125 -3.47673,-3.125 -4.44644,0 -5.28559,-2.30499 -2.9095,-7.99176 1.81699,-4.34868 1.79774,-4.48194 -0.47203,-3.2672 -1.53461,0.8213 -2.50256,2.91258 -2.75401,5.95017 -0.3516,4.24722 0.0783,4.99671 4.61227,8.04105 2.75,1.8465 5,3.39338 5,3.4375 0,0.0441 0,-1.32601 0,-3.04476 z m 45.9375,2.29715 c -0.85937,-0.34676 -2.26562,-0.34676 -3.125,0 -0.85937,0.34676 -0.15625,0.63049 1.5625,0.63049 1.71875,0 2.42188,-0.28373 1.5625,-0.63049 z m 180,0 c -0.85938,-0.34676 -2.26563,-0.34676 -3.125,0 -0.85938,0.34676 -0.15625,0.63049 1.5625,0.63049 1.71875,0 2.42187,-0.28373 1.5625,-0.63049 z m 53.43749,-87.40681 c 0,-75.953742 -0.1458,-81.503086 -2.1875,-83.256475 -1.20313,-1.033232 -3.03125,-2.287126 -4.0625,-2.786431 -1.03125,-0.499305 -0.8343,-0.05979 0.43768,0.976701 1.27196,1.03649 1.94189,2.484454 1.48872,3.217696 C 286.42182,89.400074 286.92798,90 287.9998,90 c 1.74374,0 1.94878,8.022686 1.94878,76.25 0,66.37587 -0.2388,76.25 -1.84406,76.25 -1.48223,0 -1.59485,0.65546 -0.57399,3.34056 1.87052,4.91983 0.64025,6.65683 -4.73023,6.67858 -3.22467,0.013 -4.17231,0.3702 -2.98207,1.12385 0.95955,0.60759 1.41132,1.97331 1.00394,3.03495 -0.51994,1.35492 0.91606,0.92952 4.81785,-1.42724 l 5.55856,-3.3575 0,-81.37786 z M 47.1123,256.63376 c -1.21621,-0.31692 -2.90371,-0.29609 -3.75,0.0464 -0.84629,0.34241 0.14879,0.60171 2.21129,0.57623 2.0625,-0.0255 2.75492,-0.30562 1.53871,-0.62255 z m 200.64879,0.0384 c -0.85938,-0.34676 -2.26563,-0.34676 -3.125,0 -0.85938,0.34676 -0.15625,0.63049 1.5625,0.63049 1.71875,0 2.42187,-0.28373 1.5625,-0.63049 z m -212.5,-1.25 c -0.85937,-0.34676 -2.26562,-0.34676 -3.125,0 -0.85937,0.34676 -0.15625,0.63049 1.5625,0.63049 1.71875,0 2.42188,-0.28373 1.5625,-0.63049 z m 223.67186,-0.026 c -0.90235,-0.36109 -1.98047,-0.31669 -2.39582,0.0986 -0.41536,0.41537 0.32291,0.7108 1.64061,0.65653 1.45619,-0.06 1.75238,-0.35618 0.75521,-0.7552 z m -236.24998,-1.25 c -0.90235,-0.36109 -1.98047,-0.31669 -2.39584,0.0986 -0.41536,0.41537 0.32292,0.7108 1.64063,0.65653 1.45618,-0.06 1.75237,-0.35618 0.75521,-0.7552 z m 249.42932,-0.0125 c -1.21621,-0.31692 -2.90371,-0.29609 -3.75,0.0464 -0.84628,0.34242 0.14879,0.60172 2.21129,0.57624 2.0625,-0.0255 2.75492,-0.30562 1.53871,-0.62255 z M 20.74184,241.7666 c 0.93871,0.36021 1.70675,0.15146 1.70675,-0.4639 0,-1.66054 13.40319,-7.91459 14.93415,-6.9684 0.72372,0.44729 1.31585,0.25891 1.31585,-0.41859 0,-1.73761 13.33986,-8.06674 14.93037,-7.08375 0.90893,0.56175 0.92641,-0.20346 0.0569,-2.49042 -0.69034,-1.81573 -0.93669,-3.81663 -0.54745,-4.44644 0.38924,-0.6298 0.11202,-1.1451 -0.61606,-1.1451 -0.72807,0 -1.32377,-1.0918 -1.32377,-2.42623 0,-1.33442 -0.6115,-2.80416 -1.3589,-3.26607 -0.74739,-0.46191 -1.0908,-1.86504 -0.76313,-3.11805 0.32767,-1.253 -0.10403,-2.54673 -0.95931,-2.87493 -0.85529,-0.32821 -2.62126,-4.01597 -3.92437,-8.19505 -1.30311,-4.17906 -2.79116,-7.60311 -3.30679,-7.60898 -0.51562,-0.006 -0.9375,-1.10249 -0.9375,-2.43692 0,-1.33442 -0.6115,-2.80416 -1.3589,-3.26607 -0.74739,-0.46191 -1.0908,-1.86504 -0.76313,-3.11805 0.32767,-1.253 -0.0928,-2.5424 -0.9343,-2.86534 -1.00831,-0.38692 -6.20104,11.05878 -15.22782,33.56481 l -13.69775,34.15197 5.5342,-3.08972 c 3.04381,-1.69935 6.30224,-2.795 7.24095,-2.43477 z m 250.03279,-28.52301 c -9.05494,-22.57625 -14.26134,-34.05622 -15.2697,-33.66928 -0.84154,0.32294 -1.26198,1.61234 -0.9343,2.86534 0.32766,1.25301 -0.0157,2.65614 -0.76314,3.11805 -0.7474,0.46191 -1.3589,1.93165 -1.3589,3.26607 0,1.33443 -0.42188,2.43104 -0.9375,2.43692 -0.51563,0.006 -2.00367,3.42992 -3.30679,7.60898 -1.30311,4.17908 -3.09572,7.87707 -3.98357,8.21777 -0.88785,0.3407 -1.30563,1.42382 -0.92837,2.40692 0.37725,0.98311 0.15897,2.48344 -0.48507,3.33405 -1.29259,1.70718 -4.51771,12.2505 -3.88284,12.69347 0.21953,0.15317 3.63351,1.82728 7.58664,3.72025 3.95312,1.89296 7.1875,3.99607 7.1875,4.67358 0,0.6775 0.59214,0.86588 1.31585,0.41859 1.53096,-0.94619 14.93414,5.30786 14.93414,6.9684 0,0.61536 0.77112,0.82293 1.71361,0.46126 0.94249,-0.36166 4.17686,0.75724 7.1875,2.48647 3.01064,1.72921 5.5168,3.16777 5.56924,3.1968 0.0525,0.029 -6.0875,-15.36262 -13.6443,-34.20364 z m 16.56862,-44.80609 -0.10537,-65.3125 -2.44198,5.3125 c -1.34308,2.92188 -2.93052,5.3125 -3.52765,5.3125 -0.59712,0 -0.80808,1.06152 -0.4688,2.35893 0.33928,1.29741 0.005,2.73685 -0.74202,3.19877 -0.74735,0.46191 -1.35885,1.93165 -1.35885,3.26607 0,1.33443 -0.52754,2.42623 -1.17231,2.42623 -0.64478,0 -1.10538,0.98438 -1.02355,2.1875 0.0817,1.20312 -0.73667,4.15625 -1.81887,6.5625 -1.08218,2.40625 -2.30511,5.39502 -2.71761,6.64172 -0.4125,1.2467 -1.31004,1.92062 -1.99451,1.49758 -0.72151,-0.44591 -0.92805,0.0555 -0.49148,1.19322 1.05024,2.7369 -1.93948,9.41748 -4.21457,9.41748 -2.30865,0 -1.56249,-4.75055 1.998,-12.7205 1.32793,-2.97248 2.75255,-6.42453 3.16583,-7.67123 0.41327,-1.2467 1.23663,-1.96685 1.82967,-1.60032 0.59304,0.36651 0.81269,-0.72284 0.48811,-2.42078 -0.34257,-1.79202 -0.005,-3.08717 0.80557,-3.08717 0.76765,0 1.32047,-0.42188 1.22849,-0.9375 -0.33295,-1.8666 1.76653,-9.13083 2.82868,-9.78728 0.5987,-0.37002 1.08855,-1.76457 1.08855,-3.09899 0,-1.33443 0.5625,-2.42623 1.25,-2.42623 0.6875,0 1.26235,-0.98437 1.27745,-2.1875 0.0151,-1.20312 1.10824,-4.56838 2.4292,-7.478354 l 2.40174,-5.290844 -9.6167,4.819684 c -5.28918,2.650824 -12.14794,5.969744 -15.24169,7.375374 -3.09375,1.40564 -9.06114,4.18446 -13.26089,6.17517 l -7.6359,3.61947 8.9151,22.61137 c 7.61445,19.31255 9.19101,22.40125 10.80639,21.17102 1.04021,-0.79222 1.69905,-2.37232 1.46409,-3.51134 -0.52155,-2.52829 1.14022,-3.7385 3.30031,-2.40349 1.24236,0.76783 0.96936,2.31601 -1.23554,7.00674 l -2.83027,6.02115 2.6163,6.97327 c 5.21256,13.89319 23.49315,60.03273 23.79791,60.06509 0.17187,0.0182 0.2651,-29.35744 0.20717,-65.27931 z M 31.13861,167.42229 c 0.033,-1.07399 -1.07974,-4.31167 -2.47274,-7.19484 -1.39299,-2.88316 -2.86955,-6.92631 -3.28125,-8.98479 -0.41169,-2.05846 -1.30629,-3.74266 -1.988,-3.74266 -0.68171,0 -0.9739,-1.38923 -0.64932,-3.08718 0.32458,-1.69793 0.10494,-2.78728 -0.48811,-2.42077 -0.59304,0.36652 -1.40654,-0.35363 -1.80777,-1.60033 -0.9703,-3.01486 -3.02437,-7.98933 -4.44102,-10.75507 -0.63057,-1.23109 -0.813,-2.77796 -0.40538,-3.4375 C 16.01263,125.53963 15.75044,125 15.02236,125 c -0.72807,0 -1.32377,-1.0918 -1.32377,-2.42623 0,-1.33442 -0.6115,-2.80416 -1.3589,-3.26607 -0.74739,-0.46192 -1.0813,-1.90136 -0.74202,-3.19877 0.33928,-1.29741 0.10865,-2.35893 -0.51252,-2.35893 -0.62116,0 -1.92887,-1.82812 -2.90601,-4.0625 -1.56664,-3.58236 -1.78158,3.32431 -1.8186,58.4375 l -0.042,62.5 L 18.69858,200 C 25.5076,183.15625 31.10561,168.49627 31.1386,167.42229 Z m 92.53217,60.39021 c -0.0153,-0.51563 -1.18719,-2.34375 -2.60424,-4.0625 l -2.57646,-3.125 2.24876,4.0625 c 2.26253,4.08739 2.98325,4.85556 2.93195,3.125 z m 89.05835,-82.1875 c 5.86706,-10.3125 11.91591,-20.85937 13.4419,-23.4375 l 2.7745,-4.6875 -27.15154,0 c -23.88963,0 -26.96616,0.22334 -25.60862,1.85908 0.8486,1.0225 1.21896,2.70325 0.82304,3.73501 -0.39592,1.03176 -0.11238,1.74205 0.63018,1.57841 1.6898,-0.37237 6.36134,7.57864 5.3829,9.16177 -0.39625,0.64115 0.15649,1.16573 1.22832,1.16573 1.11543,0 1.94877,1.06905 1.94877,2.5 0,1.375 0.53611,2.5 1.19135,2.5 0.65525,0 2.17281,2.10937 3.37238,4.6875 1.19956,2.57812 2.5326,4.96875 2.96232,5.3125 0.42971,0.34375 1.16699,1.46875 1.63838,2.5 0.47138,1.03125 2.00825,3.77911 3.41526,6.10636 1.407,2.32724 2.21259,5.13974 1.7902,6.25 -1.7141,4.50543 1.9781,-1.33357 12.16066,-19.23136 z M 92.87907,162.18526 c -1.14248,-1.84858 3.71449,-9.80117 5.554696,-9.09501 0.92295,0.35416 1.2925,0.0613 0.84214,-0.66741 -0.97049,-1.57027 2.801684,-9.92284 4.481334,-9.92284 0.65524,0 1.19135,-1.125 1.19135,-2.5 0,-1.375 0.42981,-2.5 0.95512,-2.5 0.52532,0 1.9299,-2.25 3.12129,-5 1.19139,-2.75 2.69121,-5 3.33293,-5 0.64172,0 1.35987,-1.26562 1.59589,-2.8125 0.23601,-1.54687 1.06119,-2.6911 1.83374,-2.54273 0.81966,0.15742 1.13701,-0.75358 0.76203,-2.1875 C 115.93648,117.61274 114.70371,117.5 89.67933,117.5 l -26.22768,0 2.39288,4.0625 c 1.31609,2.23438 7.33955,12.54687 13.38547,22.91666 6.04592,10.3698 11.74994,18.85418 12.6756,18.85418 0.92566,0 1.36372,-0.51664 0.97347,-1.14808 z M 50.84014,115.10461 c -0.8341,-0.28622 -11.16542,-5.14834 -22.95848,-10.80472 L 6.43972,94.015571 8.7917,99.195276 c 1.29359,2.848854 2.36434,6.164104 2.37944,7.367224 0.0151,1.20313 0.58995,2.1875 1.27745,2.1875 0.6875,0 1.25,1.0918 1.25,2.42623 0,1.33443 0.59365,2.79312 1.31921,3.24155 0.72557,0.44842 1.12697,1.74724 0.892,2.88627 -0.23496,1.13902 0.39154,2.69548 1.39223,3.45879 1.00069,0.76331 1.86491,3.37931 1.9205,5.81334 0.0556,2.43402 0.52691,4.16447 1.04739,3.84543 0.52048,-0.31904 1.28447,0.43997 1.69775,1.68666 0.41328,1.2467 1.83153,4.68522 3.15167,7.64114 1.32015,2.95593 2.06984,5.90905 1.66599,6.5625 -0.40386,0.65345 -0.073,1.18809 0.73521,1.18809 0.88553,0 1.23679,1.21731 0.88391,3.06329 -0.34889,1.82508 -0.0288,2.96191 0.79178,2.8125 0.75755,-0.13794 1.3357,0.98687 1.28479,2.49956 -0.0509,1.51269 0.37493,2.46141 0.94633,2.10828 0.57139,-0.35315 1.40782,0.31932 1.85873,1.49436 0.54432,1.41847 3.88649,-5.59112 9.94522,-20.85828 6.1936,-15.60701 8.63816,-23.1619 7.60884,-23.5151 z m 9.50053,-0.21893 c 0.34277,-1.31076 0.25415,-2.59461 -0.19693,-2.85302 -1.77207,-1.01514 -4.57436,1.2308 -4.6503,3.72706 -0.10185,3.34807 3.9334,2.62045 4.84723,-0.87404 z m 176.55339,0.78396 c -0.0661,-2.38885 -2.88398,-4.64052 -4.59033,-3.66806 -0.42343,0.24131 -0.52152,1.73789 -0.21799,3.32573 0.70076,3.66578 4.90866,3.96537 4.80832,0.34233 z M 62.44859,108.125 c 0.85586,-1.03125 1.27486,-1.875 0.93111,-1.875 -0.34375,0 -1.32525,0.84375 -2.18111,1.875 -0.85586,1.03125 -1.27486,1.875 -0.93111,1.875 0.34375,0 1.32525,-0.84375 2.18111,-1.875 z m 61.79121,-2.5 c 1.14184,-2.40625 2.64538,-4.375 3.34119,-4.375 0.69583,0 0.94551,-0.51715 0.55488,-1.14922 -0.39065,-0.632084 0.0194,-1.897704 0.91115,-2.812505 0.89177,-0.914801 2.62551,-3.632025 3.85273,-6.038275 4.33363,-8.497048 5.80877,-10.621364 7.13959,-10.281529 0.73979,0.188909 0.97358,-0.257606 0.51954,-0.992256 -0.45404,-0.73465 -0.10338,-2.205883 0.77929,-3.269405 1.40848,-1.697128 0.99687,-1.889785 -3.36473,-1.574868 -2.73324,0.197347 -5.60894,-0.03636 -6.39044,-0.519353 -0.7815,-0.482992 -1.60956,-0.364095 -1.84016,0.264213 -0.2306,0.628309 -3.23176,1.463822 -6.66926,1.856697 -3.4375,0.392873 -10.74871,1.242112 -16.24712,1.887197 -5.49842,0.645086 -10.27967,1.152715 -10.625,1.128066 -5.95873,-0.425318 -7.40109,0.711897 -18.51762,14.600107 -6.31689,7.891881 -11.48525,14.641881 -11.48525,15.000001 0,0.35812 12.59216,0.65113 27.98257,0.65113 l 27.98257,0 2.07608,-4.375 z m 101.95879,3.65783 c 0,-0.38514 -5.07686,-7.05133 -11.28191,-14.813765 L 203.63475,80.355552 195.31917,79.57903 c -4.57358,-0.427086 -8.76935,-1.491461 -9.32395,-2.365276 -0.80243,-1.264293 -1.01227,-1.24937 -1.0275,0.07306 -0.0132,1.148985 -1.07994,1.44346 -3.45664,0.954235 -1.89063,-0.389171 -6.7893,-1.012545 -10.88595,-1.385275 -4.09665,-0.37273 -7.7529,-1.083386 -8.125,-1.579235 -0.3721,-0.495846 -3.32233,-0.901541 -6.55604,-0.901541 -5.87117,0 -5.87679,0.0041 -3.96752,2.913485 1.05158,1.602418 1.60823,3.705045 1.23698,4.672505 -0.37124,0.967461 -0.0484,1.625142 0.71765,1.461515 0.76597,-0.163628 2.57384,1.952495 4.01752,4.702495 1.44367,2.75 3.04673,5.1875 3.56236,5.416666 0.51562,0.229168 0.9375,1.494793 0.9375,2.8125 0,1.317709 0.5213,2.395832 1.15845,2.395832 1.15141,0 5.09155,6.919884 5.09155,8.942054 0,2.19677 -4.0125,0.94915 -4.63781,-1.44205 -0.35958,-1.375 -1.15066,-2.5 -1.75798,-2.5 -0.60731,0 -1.10421,-1.125 -1.10421,-2.5 0,-1.375004 -0.53611,-2.500004 -1.19135,-2.500004 -0.65525,0 -2.17281,-2.109373 -3.37238,-4.687498 -1.19956,-2.578125 -2.57067,-4.96875 -3.04692,-5.3125 -0.47625,-0.34375 -2.08926,-2.97731 -3.58446,-5.852356 -1.4952,-2.875046 -3.63345,-5.968796 -4.75167,-6.875 -1.68737,-1.367455 -1.8623,-1.363839 -1.02863,0.02126 1.03325,1.716719 -2.75877,10.206098 -4.55884,10.206098 -0.53116,0 -0.96575,1.125 -0.96575,2.5 0,1.375 -0.5625,2.5 -1.25,2.5 -0.6875,0 -1.25,0.815799 -1.25,1.812888 0,0.997087 -0.98438,2.386232 -2.1875,3.086988 -1.20313,0.700756 -1.77465,1.291208 -1.27006,1.312113 0.50458,0.02091 -0.25458,2.286567 -1.68704,5.034811 -1.43246,2.74824 -3.1045,4.68778 -3.71563,4.31008 -0.61112,-0.3777 -0.77993,0.17636 -0.37513,1.23125 0.64418,1.67874 6.87908,1.91966 49.98567,1.93147 27.08733,0.007 49.2497,-0.30162 49.2497,-0.68677 z M 65.95455,96.776275 c 12.52935,-15.3016 12.40701,-14.993647 5.74586,-14.462908 -4.20584,0.335108 -5.50182,0.0056 -5.50182,-1.398947 0,-1.788903 5.37693,-3.281301 12.5,-3.46945 2.48879,-0.06574 5.98112,-3.694967 17.15387,-17.826256 7.71588,-9.759043 18.26275,-23.009695 23.43749,-29.445894 5.17474,-6.436199 9.40863,-11.966451 9.40863,-12.289449 0,-0.322999 -1.82813,0.525228 -4.0625,1.884945 C 119.10679,23.133141 96.23573,36.677541 53.42384,61.940685 31.24191,75.030163 17.54738,83.841465 17.58503,85 c 0.0413,1.271986 0.2637,1.372489 0.69141,0.3125 0.85571,-2.12068 5.42215,-1.992046 5.42215,0.15274 0,1.04995 -2.06056,2.048172 -5.3125,2.573602 l -5.3125,0.858363 14.375,6.788456 c 7.90625,3.733645 17.1875,8.164299 20.625,9.845879 3.4375,1.68159 6.8125,2.90861 7.5,2.72672 0.6875,-0.18189 5.35893,-5.34879 10.38096,-11.481985 z M 24.94859,85.257227 c 0,-2.029688 0.88224,-2.474693 5.01939,-2.53179 2.76066,-0.0381 6.20588,-0.445854 7.65605,-0.906121 1.64598,-0.522413 3.04052,-0.199498 3.71148,0.859419 0.67339,1.062754 1.08195,1.156519 1.09394,0.251063 0.0106,-0.804979 2.92632,-1.797126 6.58164,-2.239612 3.60938,-0.436925 8.67188,-1.101652 11.25,-1.47717 4.04683,-0.589444 4.6875,-0.349781 4.6875,1.7535 0,2.079015 -1.1431,2.539915 -7.79543,3.143128 -5.3075,0.481266 -8.09398,0.23747 -8.73086,-0.76389 -0.69361,-1.090547 -0.94038,-1.097152 -0.95457,-0.02555 -0.0106,0.804978 -2.92632,1.797125 -6.58164,2.239611 -3.60937,0.436925 -8.67187,1.101652 -11.25,1.47717 -4.06143,0.59157 -4.6875,0.353864 -4.6875,-1.779758 z M 258.08544,99.062496 C 269.54127,93.734375 278.02194,89.19313 276.93139,88.970845 274.65427,88.506701 274.20117,85 276.41833,85 c 0.80835,0 -5.80103,-4.297696 -14.6875,-9.550438 -27.15223,-16.0495 -89.64643,-53.099797 -94.19106,-55.842101 -2.69342,-1.625248 -3.87859,-1.929252 -3.19233,-0.81885 3.28517,5.315505 46.23548,57.783263 47.78989,58.379746 1.01513,0.389549 3.32858,0.816735 5.14098,0.949303 1.8124,0.132566 4.5609,0.329075 6.10778,0.436685 1.66381,0.11575 2.8125,1.012854 2.8125,2.196522 0,1.604505 -1.1149,1.912195 -5.62809,1.553248 -3.09544,-0.246191 -5.48606,-0.122463 -5.3125,0.274955 0.79025,1.809394 20.40974,25.98888 21.15713,26.07451 0.46285,0.053 10.21449,-4.26295 21.67031,-9.591084 z m -3.70171,-12.992671 c -4.77941,-0.612662 -9.0707,-1.730156 -9.53619,-2.483319 -0.49669,-0.803657 -1.03794,-0.873428 -1.31014,-0.168886 -0.26224,0.678771 -3.85907,0.946569 -8.27631,0.616201 -6.60544,-0.494022 -7.8125,-0.947345 -7.8125,-2.93406 0,-1.292369 0.15539,-2.349761 0.34529,-2.349761 5.1561,0 21.73511,3.059283 22.42046,4.137189 0.70727,1.112406 0.9508,1.079269 0.96511,-0.13133 0.0132,-1.120409 1.27048,-1.425368 4.08164,-0.990051 2.23436,0.345999 7.29686,0.974463 11.24999,1.396587 5.0363,0.537786 7.1875,1.301759 7.1875,2.55255 0,2.195486 -4.55069,2.382271 -5.42215,0.222555 -0.50439,-1.25 -0.65021,-1.25 -0.72916,0 -0.10913,1.727185 -0.67738,1.732898 -13.16354,0.132325 z M 67.44859,101.875 c 0.85586,-1.03125 1.27486,-1.875004 0.93111,-1.875004 -0.34375,0 -1.32525,0.843754 -2.18111,1.875004 -0.85586,1.03125 -1.27486,1.875 -0.93111,1.875 0.34375,0 1.32525,-0.84375 2.18111,-1.875 z m 10,-12.5 c 0.85586,-1.03125 1.27486,-1.875 0.93111,-1.875 -0.34375,0 -1.32525,0.84375 -2.18111,1.875 -0.85586,1.03125 -1.27486,1.875 -0.93111,1.875 0.34375,0 1.32525,-0.84375 2.18111,-1.875 z M 5.7792,89.16394 C 5.31935,88.704106 5.92874,87.176374 7.13336,85.76898 9.29481,83.243705 9.28343,83.235565 6.2671,85.149518 2.4566,87.567391 1.53413,90 4.42775,90 5.63088,90 6.23903,89.623772 5.7792,89.16394 Z m 206.66939,-4.635884 c 0,-0.25957 -0.98438,-1.243945 -2.1875,-2.1875 -1.98258,-1.554838 -2.02679,-1.510626 -0.47195,0.471944 1.63296,2.082185 2.65945,2.744349 2.65945,1.715556 z M 111.60275,73.654361 c 2.18395,-0.0526 5.09583,-0.318877 6.47083,-0.591723 1.375,-0.272847 6.4375,-0.871309 11.25,-1.329916 4.8125,-0.458607 9.72291,-0.930872 10.91204,-1.049479 3.43323,-0.342443 3.95192,-1.560921 3.76246,-8.838748 C 143.843,55.887287 144.12827,55 146.19858,55 c 2.06038,0 2.35561,0.885497 2.2064,6.617477 -0.17073,6.558677 0.87551,10.192967 2.62337,9.112729 0.49887,-0.308315 4.81938,-0.07187 9.60113,0.525418 4.78175,0.597295 11.1928,1.384618 14.24677,1.749608 12.58295,1.503829 16.3233,2.350527 16.34147,3.699198 0.0113,0.832401 0.47321,0.703589 1.11583,-0.311114 0.75079,-1.185509 2.19349,-1.456406 4.57416,-0.858897 2.7764,0.696832 3.21043,0.54194 2.15297,-0.768316 C 198.33223,73.863496 186.9382,59.625 173.74064,43.125 c -21.17879,-26.478369 -24.41186,-30 -27.54185,-30 -3.52966,0 -7.12816,4.194745 -52.76918,61.51277 -0.90439,1.135771 -0.13308,1.416621 3.09501,1.126958 2.364776,-0.212197 4.91261,-0.764675 5.66185,-1.227729 0.74924,-0.463055 2.0991,-0.04115 2.99969,0.93756 1.39638,1.517512 1.69693,1.521555 2.04159,0.02746 0.23594,-1.022823 2.05683,-1.791823 4.375,-1.847657 z M 143.97635,45.625 c 0,-6.828545 0.34067,-8.125 2.13494,-8.125 1.78339,0 2.15239,1.337849 2.24098,8.125 0.0916,7.01806 -0.19927,8.125 -2.13494,8.125 -1.92479,0 -2.24098,-1.146375 -2.24098,-8.125 z M 143.69858,33.75 c 0,-1.666666 0.83334,-2.5 2.5,-2.5 1.66666,0 2.5,0.833334 2.5,2.5 0,1.666666 -0.83334,2.5 -2.5,2.5 -1.66666,0 -2.5,-0.833334 -2.5,-2.5 z m 0.27777,-11.875 c 0,-7.132352 0.28847,-8.125 2.36112,-8.125 2.07265,0 2.36111,0.992647 2.36111,8.125 0,7.132352 -0.28846,8.125 -2.36111,8.125 -2.07265,0 -2.36112,-0.992648 -2.36112,-8.125 z m 49.72223,38.903056 c 0,-0.25957 -0.98438,-1.243945 -2.1875,-2.1875 -1.98258,-1.554838 -2.02679,-1.510626 -0.47195,0.471944 1.63296,2.082185 2.65945,2.744349 2.65945,1.715556 z m -6.25,-7.5 c 0,-0.25957 -0.98438,-1.243945 -2.1875,-2.1875 -1.98258,-1.554838 -2.02679,-1.510626 -0.47195,0.471944 1.63296,2.082185 2.65945,2.744349 2.65945,1.715556 z m -3.75,-4.959321 c 0,-0.237196 -1.26563,-1.502821 -2.8125,-2.8125 l -2.8125,-2.381235 2.38124,2.8125 c 2.23777,2.643056 3.24376,3.381551 3.24376,2.381235 z M 122.44858,33.125 c 0.85586,-1.03125 1.27486,-1.875 0.93111,-1.875 -0.34375,0 -1.32525,0.84375 -2.18111,1.875 -0.85586,1.03125 -1.27486,1.875 -0.93111,1.875 0.34375,0 1.32525,-0.84375 2.18111,-1.875 z m 50,1.403056 c 0,-0.25957 -0.98438,-1.243945 -2.1875,-2.1875 -1.98258,-1.554838 -2.02679,-1.510626 -0.47195,0.471944 1.63296,2.082185 2.65945,2.744349 2.65945,1.715556 z m -15,-18.75 c 0,-0.25957 -0.98438,-1.243945 -2.1875,-2.1875 -1.98258,-1.554836 -2.02679,-1.510626 -0.47195,0.471944 1.63296,2.082185 2.65945,2.744349 2.65945,1.715556 z M 141.93853,8.1250001 c 2.58955,-3.9521601 5.3427,-3.9682201 8.5881,-0.0501 2.07181,2.5012899 2.81816,2.7660199 4.00077,1.4191 1.1529,-1.31309 0.44302,-2.2239199 -3.42961,-4.4004601 l -4.88345,-2.74465 -4.80936,2.8880502 c -2.64515,1.58843 -4.57058,3.5911799 -4.27872,4.4505499 0.82369,2.4253599 2.57107,1.8580099 4.81227,-1.5625 z"
     id="path4140"
     inkscape:connector-curvature="0" />
  <path
     style="fill:#bdc3c0;fill-opacity:0"
     d="m 307.95407,319.37428 c -41.9465,-24.85797 -55.1152,-32.62979 -85.39938,-50.40048 l -24.49737,-14.375 0.28679,-85.58603 0.28679,-85.586026 18.75,-11.154875 c 17.6305,-10.488858 36.57905,-21.703934 98.18973,-58.115563 15.35642,-9.0755751 27.01541,-15.1825099 28.98552,-15.1825099 1.95539,0 12.09661,5.26323 24.93527,12.9412459 11.90172,7.117685 34.29573,20.44328 49.76448,29.612435 15.46875,9.169154 37.6875,22.360092 49.375,29.313195 l 21.25,12.642006 0.32116,85.224412 0.32118,85.22441 -4.69618,2.96034 c -5.46761,3.44663 -107.51566,64.05394 -125.94,74.79695 -6.87161,4.00676 -13.92617,7.28501 -15.67682,7.28501 -1.86912,0 -16.83496,-8.09031 -36.25617,-19.59952 z m 38.80183,15.84952 c 1.42671,-0.92201 0.92136,-1.2163 -2.11373,-1.23086 -2.1938,-0.01 -4.33637,-0.58164 -4.76127,-1.26914 -0.4249,-0.6875 -1.44248,-1.24629 -2.26128,-1.24176 -0.8188,0.005 0.19878,1.12582 2.26128,2.49176 4.31204,2.85575 4.3731,2.86685 6.875,1.25 z m 5,-3.19877 c 0,-0.30318 -0.5625,-0.55123 -1.25,-0.55123 -0.6875,0 -1.25,0.5957 -1.25,1.32377 0,0.72808 0.5625,0.97613 1.25,0.55123 0.6875,-0.4249 1.25,-1.0206 1.25,-1.32377 z m -11.25,-33.05123 c 0,-17.94133 -0.46053,-28.75 -1.22495,-28.75 -2.81646,0 -47.03055,-5.13895 -48.46255,-5.63275 -2.2691,-0.78244 -2.02618,-0.34236 2.81146,5.09319 2.40567,2.70301 4.19864,5.4419 3.98437,6.08643 -0.7971,2.39772 -3.54701,2.12663 -4.21171,-0.41517 -0.37851,-1.44744 -1.46634,-2.6317 -2.41741,-2.6317 -0.95107,0 -1.72921,-0.53353 -1.72921,-1.1856 0,-0.65208 -1.2947,-2.5826 -2.8771,-4.29004 -2.70701,-2.92091 -4.60993,-3.29425 -32.1875,-6.31489 -16.12072,-1.76573 -30.9979,-3.49282 -33.0604,-3.83796 -3.47785,-0.58198 -3.34177,-0.36705 1.875,2.96174 15.56825,9.934 105.52637,62.55704 106.04815,62.03527 0.33175,-0.33176 -0.38596,-1.6962 -1.59494,-3.03209 -1.23622,-1.36602 -1.78651,-3.09488 -1.25752,-3.95081 0.56586,-0.91558 0.41891,-1.19948 -0.36889,-0.7126 -0.72021,0.44512 -2.63524,-0.91676 -4.25563,-3.02639 -1.6204,-2.10964 -4.76386,-5.90254 -6.98549,-8.42867 -2.22162,-2.52612 -3.77494,-5.3253 -3.45181,-6.22039 0.32312,-0.89507 0.0916,-1.32093 -0.51452,-0.94633 -0.60611,0.3746 -2.42779,-1.05103 -4.04818,-3.16804 -1.6204,-2.11701 -3.70393,-4.65875 -4.63008,-5.64829 -0.92615,-0.98953 -1.36568,-2.62845 -0.97673,-3.64204 0.75419,-1.96538 3.28564,-2.5628 3.28564,-0.7754 0,0.58711 1.26563,2.45722 2.8125,4.15579 3.67761,4.03828 8.58756,10.13568 10.9375,13.5827 1.03125,1.5127 2.57813,3.48501 3.4375,4.38292 0.85938,0.8979 1.5625,1.92841 1.5625,2.29002 0,0.3616 1.26563,1.97492 2.8125,3.58516 5.93329,6.17632 12.11681,14.12667 12.1514,15.62344 0.0199,0.85937 0.5986,1.5625 1.2861,1.5625 0.7971,0 1.25,-10.41666 1.25,-28.75 z m -43.29032,-18.10508 c -1.12047,-2.91988 1.74811,-5.6265 3.32205,-3.13447 0.6477,1.0255 1.01099,2.39189 0.80733,3.03642 -0.67398,2.13288 -3.3244,2.19581 -4.12938,0.098 z m 53.29032,44.94085 c 0,-1.05283 0.84375,-2.23801 1.875,-2.63373 1.03125,-0.39574 1.875,-1.54433 1.875,-2.55243 0,-1.08451 0.89319,-1.64835 2.1875,-1.38087 1.20312,0.24862 2.11749,1.36622 2.0319,2.48356 -0.12548,1.63837 0.96305,1.35656 5.625,-1.45626 7.92849,-4.78371 93.09811,-55.10116 100.52456,-59.38902 3.29669,-1.90341 5.82794,-3.60598 5.625,-3.78347 -0.20292,-0.1775 -14.99396,1.32757 -32.86896,3.34459 -29.60728,3.34089 -32.6961,3.91161 -34.70313,6.41208 -2.12082,2.64223 -2.26919,2.65879 -3.97122,0.44319 -1.70091,-2.21414 -2.47209,-2.22516 -20.29687,-0.2903 -10.19083,1.10621 -21.20066,2.33533 -24.46628,2.73139 l -5.9375,0.7201 0,28.6327 c 0,18.25514 0.45305,28.6327 1.25,28.6327 0.6875,0 1.25,-0.8614 1.25,-1.91423 z m 7.68971,-7.23218 c -1.1478,-1.38303 -1.04402,-2.12587 0.47285,-3.38477 2.91886,-2.42243 5.60929,0.54504 2.92649,3.22784 -1.65775,1.65775 -2.13546,1.6798 -3.39934,0.15693 z m 3.80743,-4.93082 c -0.96203,-1.15916 -0.17403,-2.89863 2.97288,-6.5625 2.35504,-2.7419 4.7083,-5.54777 5.22949,-6.23527 5.49238,-7.24506 10.09011,-13.04628 12.38355,-15.625 1.5286,-1.71875 3.89346,-4.53125 5.25524,-6.25 2.3209,-2.92929 2.53365,-2.97668 3.39694,-0.75674 0.61541,1.58253 0.2315,2.87241 -1.15714,3.8878 -1.14295,0.83575 -2.09681,2.02004 -2.11969,2.63174 -0.0667,1.78644 -4.60079,6.7372 -6.17005,6.7372 -0.78975,0 -1.12452,0.50382 -0.74394,1.11962 0.38058,0.61579 -1.26067,3.28767 -3.64722,5.9375 -2.38656,2.64983 -4.35225,5.23975 -4.3682,5.75538 -0.016,0.51562 -0.90595,0.9375 -1.97778,0.9375 -1.07182,0 -1.646,0.4899 -1.27593,1.08865 0.37005,0.59876 -0.4405,2.37234 -1.80124,3.94126 -1.36073,1.56894 -2.47405,3.32905 -2.47405,3.91135 0,1.57714 -2.01065,1.27953 -3.50286,-0.51849 z m 29.14441,-37.146 c -0.82273,-1.3312 4.16776,-8.77677 5.88275,-8.77677 2.16419,0 2.58871,4.07247 0.54381,5.21685 -1.13746,0.63656 -2.06811,1.97317 -2.06811,2.97026 0,2.03888 -3.19559,2.47121 -4.35845,0.58966 z M 346.7559,265.8488 c 0,-1.04166 -1.11111,-1.875 -2.5,-1.875 -1.38889,0 -2.5,0.83334 -2.5,1.875 0,1.04166 1.11111,1.875 2.5,1.875 1.38889,0 2.5,-0.83334 2.5,-1.875 z m -11.58629,-0.24124 c -1.21621,-0.31692 -2.90371,-0.29609 -3.75,0.0464 -0.84629,0.34241 0.14879,0.60171 2.21129,0.57623 2.0625,-0.0255 2.75493,-0.30562 1.53871,-0.62255 z m 20.57066,0.0125 c -0.90233,-0.36109 -1.98046,-0.31669 -2.39583,0.0986 -0.41536,0.41536 0.32292,0.7108 1.64062,0.65652 1.45619,-0.06 1.75238,-0.35617 0.75521,-0.7552 z m -31.82066,-1.26235 c -1.21621,-0.31692 -2.90371,-0.29609 -3.75,0.0464 -0.84629,0.34241 0.14879,0.60171 2.21129,0.57623 2.0625,-0.0255 2.75493,-0.30562 1.53871,-0.62255 z m 43.07066,0.0125 c -0.90235,-0.36109 -1.98047,-0.31669 -2.39583,0.0986 -0.41537,0.41536 0.32292,0.7108 1.64062,0.65652 1.45619,-0.06 1.75238,-0.35617 0.75521,-0.7552 z m -55.57066,-1.26235 c -1.21621,-0.31692 -2.90371,-0.29609 -3.75,0.0464 -0.84629,0.34241 0.14879,0.60171 2.21129,0.57623 2.0625,-0.0255 2.75492,-0.30562 1.53871,-0.62255 z m 68.75,0 c -1.21621,-0.31692 -2.90371,-0.29609 -3.75,0.0464 -0.84629,0.34241 0.14879,0.60171 2.21129,0.57623 2.0625,-0.0255 2.75492,-0.30562 1.53871,-0.62255 z m -79.35121,-1.21191 c -0.85937,-0.34676 -2.26562,-0.34676 -3.125,0 -0.85937,0.34676 -0.15625,0.63049 1.5625,0.63049 1.71875,0 2.42188,-0.28373 1.5625,-0.63049 z m 35.9375,0.28029 c 0,-0.50334 -18.61615,-33.14521 -19.59771,-34.36295 -0.2374,-0.29453 -7.73754,-0.53239 -16.66697,-0.52859 -14.8925,0.006 -16.23532,-0.18198 -16.23532,-2.27699 0,-2.0427 1.18813,-2.28391 11.25,-2.28391 8.15646,0 11.25526,0.42966 11.26914,1.5625 0.0137,1.11876 0.33236,1.06786 1.12205,-0.17925 0.64617,-1.02045 2.19122,-1.45715 3.73086,-1.05453 1.44537,0.37798 2.62795,0.41503 2.62795,0.0823 0,-1.5362 -26.85304,-46.66106 -27.76721,-46.66106 -0.57001,0 -1.67712,1.40625 -2.46023,3.125 -0.78312,1.71879 -1.89606,3.12504 -2.4732,3.12504 -0.57715,0 -1.04936,1.125 -1.04936,2.5 0,1.375 -0.8261,2.5 -1.83577,2.5 -1.05924,0 -1.55194,0.73964 -1.16478,1.74856 0.36904,0.96172 0.0354,2.14135 -0.74134,2.62143 -0.77677,0.48007 -1.93907,2.25831 -2.58287,3.95165 -0.70856,1.86364 -1.74107,2.7262 -2.61603,2.18545 -0.93184,-0.57592 -1.10518,-0.34274 -0.48781,0.65618 1.00211,1.62145 -2.8961,10.08673 -4.64489,10.08673 -2.4814,0 -2.04318,-3.90376 1.0686,-9.51925 1.8609,-3.35816 3.74946,-6.387 4.1968,-6.73075 0.44734,-0.34375 1.79481,-2.73438 2.99437,-5.3125 1.19955,-2.57813 2.75032,-4.6875 3.44614,-4.6875 0.69582,0 0.9455,-0.51715 0.55486,-1.14923 -0.39064,-0.63207 -0.002,-1.91944 0.86373,-2.86083 2.40887,-2.61949 4.83757,-7.23674 4.32813,-8.22829 -6.00935,-11.69599 -27.7761,-47.58976 -28.42584,-46.87471 -2.31419,2.54679 -20.00661,49.72029 -18.79862,50.12296 0.73993,0.24664 1.34532,1.49336 1.34532,2.7705 0,1.27713 0.6115,2.69999 1.3589,3.1619 0.74739,0.46191 1.0908,1.86504 0.76313,3.11805 -0.32767,1.253 0.0452,2.52421 0.8286,2.82491 0.78341,0.3007 2.53833,3.85265 3.89983,7.89323 1.3615,4.04059 3.49281,9.47411 4.73624,12.07451 1.24343,2.6004 1.9244,5.27227 1.51327,5.9375 -0.41113,0.66522 -0.16253,1.2095 0.55244,1.2095 0.71498,0 1.65291,1.40625 2.08428,3.125 1.00762,4.01465 2.74854,3.98414 4.29191,-0.0753 0.66919,-1.76013 1.77383,-2.85591 2.45474,-2.43509 0.68091,0.42084 0.96913,0.0328 0.64047,-0.86227 -0.32865,-0.89509 -0.0644,-2.46648 0.58727,-3.49198 0.94242,-1.4831 1.50176,-1.54761 2.734,-0.31536 1.23225,1.23224 0.8593,2.82654 -1.82295,7.79289 -4.02228,7.4475 -4.22424,10.55689 -0.87213,13.42706 1.375,1.17731 2.5,2.79912 2.5,3.60402 0,0.80492 0.84375,1.78724 1.875,2.18298 1.03125,0.39572 1.875,1.26494 1.875,1.93159 0,0.66663 1.69123,3.06373 3.75828,5.32687 2.06706,2.26314 3.57878,4.65333 3.35938,5.31153 -0.75103,2.25308 -3.36574,2.18752 -4.21024,-0.10563 -0.46414,-1.2603 -1.58944,-2.74127 -2.50066,-3.29106 -0.91122,-0.54965 -1.65676,-1.81528 -1.65676,-2.81236 0,-0.99709 -0.84375,-1.81289 -1.875,-1.81289 -1.03125,0 -1.875,-0.78357 -1.875,-1.74126 0,-0.9577 -0.84375,-2.06504 -1.875,-2.46078 -1.03125,-0.39572 -1.875,-1.29965 -1.875,-2.00873 0,-0.70908 -1.16264,-2.45187 -2.58364,-3.87287 -2.04202,-2.04202 -2.95583,-2.27475 -4.35908,-1.11016 -0.97649,0.81043 -2.74984,1.09958 -3.94076,0.64258 -1.19093,-0.457 -1.75069,-0.41628 -1.24391,0.0905 1.22436,1.22436 -13.03207,8.16701 -15.12299,7.36465 -0.8962,-0.34392 -1.28335,-0.0652 -0.86032,0.61922 0.42304,0.68448 -0.25087,1.57538 -1.49757,1.97978 -1.2467,0.4044 -5.73708,2.43036 -9.97862,4.50212 -4.24154,2.07176 -8.31967,3.39122 -9.0625,2.93213 -0.74284,-0.45909 -1.35061,-0.37077 -1.35061,0.19628 0,0.56705 15.46875,2.73027 34.375,4.80714 18.90625,2.07687 34.375,3.33361 34.375,2.79276 0,-0.54085 -0.885,-0.98336 -1.96666,-0.98336 -1.16404,0 -1.80171,-0.85046 -1.5625,-2.08391 0.59706,-3.07859 3.59389,-3.56355 4.34203,-0.70266 1.11157,4.25062 5.78317,5.53476 30.66716,8.42983 29.40629,3.42122 27.26997,3.22073 27.26997,2.55918 z m -76.25,-37.20067 c 0,-1.93808 1.13189,-2.25177 8.125,-2.25177 5.61403,0 8.1555,0.48287 8.22368,1.5625 0.079,1.25 0.22478,1.25 0.72917,0 1.01861,-2.52438 5.42215,-1.88591 5.42215,0.78615 0,2.13141 -1.0406,2.3397 -11.25,2.25177 -9.96743,-0.0859 -11.25,-0.35358 -11.25,-2.34865 z m 122.06914,34.07264 c 21.60187,-2.42309 26.03021,-3.70134 27.10857,-7.82496 0.72154,-2.7592 3.13488,-2.94233 4.1433,-0.3144 0.4189,1.09165 -0.19216,2.61854 -1.40199,3.50319 -1.52656,1.11625 6.8029,0.57312 28.90573,-1.88482 17.07764,-1.89911 32.73775,-3.53161 34.80025,-3.62777 3.65686,-0.17051 3.67239,-0.19779 0.625,-1.09841 -1.71875,-0.50795 -2.97044,-1.61869 -2.78153,-2.46832 0.19018,-0.85535 -0.27658,-1.16153 -1.04591,-0.68607 -0.76415,0.47228 -3.73121,-0.26884 -6.59346,-1.64693 -2.86226,-1.37808 -9.56348,-4.58393 -14.8916,-7.12411 -5.32813,-2.54016 -9.6875,-5.11458 -9.6875,-5.72092 0,-0.60634 -0.82379,-0.78632 -1.83064,-0.39995 -1.00684,0.38636 -3.67871,-0.59369 -5.9375,-2.17789 -3.0518,-2.1404 -3.63728,-2.2962 -2.27905,-0.60645 1.60791,2.00035 1.59859,2.44565 -0.0775,3.70116 -1.0479,0.78499 -2.27463,2.41161 -2.72609,3.61474 -0.45143,1.20312 -1.40095,2.1875 -2.11003,2.1875 -0.70908,0 -1.28923,0.84375 -1.28923,1.875 0,1.03125 -0.84375,1.875 -1.875,1.875 -1.03125,0 -1.875,0.81055 -1.875,1.80122 0,2.56525 -2.45635,3.74632 -4.17141,2.00572 -1.10658,-1.12305 -0.98748,-1.82817 0.49887,-2.95359 1.07387,-0.81309 2.32183,-2.46273 2.77328,-3.66585 0.45144,-1.20313 1.40095,-2.1875 2.11004,-2.1875 0.70907,0 1.28922,-0.78358 1.28922,-1.74126 0,-0.9577 0.89053,-2.08299 1.97895,-2.50067 2.89478,-1.11082 1.41974,-3.88307 -2.06606,-3.88307 -1.85271,0 -3.15403,-0.83265 -3.41876,-2.1875 -0.2965,-1.5174 0.36647,-2.1875 2.16422,-2.1875 1.4254,0 2.63606,0.70312 2.69034,1.5625 0.079,1.25 0.22477,1.25 0.72916,0 0.34676,-0.85938 1.56799,-1.57111 2.71381,-1.58164 1.21707,-0.0113 1.55158,-0.40101 0.80447,-0.9375 -2.56394,-1.84116 -5.76782,-8.04297 -5.08043,-9.83427 0.38811,-1.01142 0.21334,-1.53467 -0.38839,-1.16278 -0.60172,0.37189 -1.72721,-0.0867 -2.50108,-1.01922 -1.06518,-1.28345 -0.94039,-2.08269 0.51356,-3.28937 2.21912,-1.84171 2.13745,-1.9001 4.87733,3.48649 1.14677,2.25456 1.73901,4.65913 1.31606,5.34346 -0.42295,0.68435 -0.0739,1.0897 0.77575,0.9008 0.84962,-0.18891 1.91347,1.06278 2.36412,2.78153 0.78418,2.99081 0.88702,2.92372 2.39509,-1.5625 0.86666,-2.57813 2.12781,-4.6875 2.80258,-4.6875 0.67475,0 0.8964,-0.53464 0.49254,-1.18809 -0.40385,-0.65345 0.34584,-3.60657 1.66599,-6.5625 1.32014,-2.95592 2.7384,-6.39444 3.15168,-7.64114 0.41327,-1.2467 1.17726,-2.0057 1.69775,-1.68666 0.52047,0.31904 0.9918,-1.41141 1.04739,-3.84544 0.0556,-2.43402 0.91981,-5.05002 1.92049,-5.81333 1.00069,-0.76332 1.62719,-2.31977 1.39223,-3.45879 -0.23496,-1.13903 0.16644,-2.43785 0.892,-2.88628 0.72556,-0.44842 1.31921,-1.86025 1.31921,-3.13737 0,-1.27714 0.63605,-2.53409 1.41345,-2.79321 1.2885,-0.4295 -16.41601,-47.53363 -18.82878,-50.09535 -1.15743,-1.22889 -27.72629,44.64295 -28.16339,48.62481 -0.17591,1.60254 0.1075,2.64956 0.6299,2.32672 0.52236,-0.32283 2.12176,1.66159 3.55422,4.40983 1.43247,2.74824 2.19163,5.0139 1.68704,5.03481 -0.50459,0.0209 0.067,0.61135 1.27006,1.31211 1.20313,0.70075 2.1875,2.0899 2.1875,3.08699 0,0.99709 0.5625,1.81289 1.25,1.81289 0.6875,0 1.25,1.125 1.25,2.5 0,1.375 0.53611,2.5 1.19135,2.5 2.02465,0 5.57833,8.73032 4.13939,10.16926 -1.52885,1.52885 -6.57274,-5.41552 -11.24485,-15.48176 -1.1966,-2.57813 -2.60545,-4.6875 -3.13076,-4.6875 -0.52533,0 -0.95513,-1.125 -0.95513,-2.5 0,-1.375 -0.58062,-2.5 -1.29027,-2.5 -0.70967,0 -1.75064,-1.24446 -2.3133,-2.76546 -0.90799,-2.45453 -1.67138,-1.64643 -6.78977,7.1875 -3.17172,5.47412 -9.37241,16.14046 -13.77931,23.70296 -4.71287,8.08756 -7.43391,13.95588 -6.60745,14.24993 0.7728,0.27496 1.81836,1.11871 2.32346,1.875 0.65868,0.98624 0.92377,0.97252 0.9375,-0.0485 0.0125,-0.91683 2.91144,-1.42361 8.14414,-1.42361 7.00328,0 8.125,0.31194 8.125,2.25942 0,2.03855 -1.16172,2.23465 -11.88469,2.00606 l -11.88468,-0.25336 -9.55298,16.91756 c -5.25413,9.30465 -9.82096,17.4009 -10.14851,17.99165 -0.32754,0.59075 1.58504,0.72683 4.25016,0.3024 2.66514,-0.42443 14.49557,-1.85412 26.28984,-3.17709 z m 30.85065,-10.78344 c -1.04183,-2.71495 1.60305,-5.26813 3.49618,-3.37499 1.60006,1.60005 0.60882,5.33402 -1.41597,5.33402 -0.73065,0 -1.66675,-0.88156 -2.08021,-1.95903 z M 396.7559,225.12136 c 0,-1.56422 0.86894,-2.39756 2.5,-2.39756 1.375,0 2.50861,0.70312 2.51914,1.5625 0.015,1.22864 0.2278,1.23402 0.9957,0.0252 0.61611,-0.9699 3.86282,-1.49668 8.79646,-1.42723 6.49971,0.0915 7.75409,0.45183 7.43007,2.1343 -0.31948,1.65899 -2.36121,2.06718 -11.31559,2.26228 -10.01958,0.21832 -10.92578,0.0392 -10.92578,-2.15949 z m -5.9375,36.77459 c -0.85938,-0.34676 -2.26563,-0.34676 -3.125,0 -0.85938,0.34676 -0.15625,0.63049 1.5625,0.63049 1.71875,0 2.42187,-0.28373 1.5625,-0.63049 z m -101.89879,-1.28839 c -1.21621,-0.31692 -2.90371,-0.29609 -3.75,0.0464 -0.84629,0.34241 0.14879,0.60171 2.21129,0.57623 2.0625,-0.0255 2.75492,-0.30562 1.53871,-0.62255 z m 113.77379,0.005 c -1.20313,-0.3144 -3.17188,-0.3144 -4.375,0 -1.20313,0.31441 -0.21875,0.57166 2.1875,0.57166 2.40625,0 3.39062,-0.25725 2.1875,-0.57166 z m -122.5,-1.25 c -1.20313,-0.3144 -3.17188,-0.3144 -4.375,0 -1.20313,0.31441 -0.21875,0.57166 2.1875,0.57166 2.40625,0 3.39062,-0.25725 2.1875,-0.57166 z m 132.47621,-0.005 c -1.21621,-0.31692 -2.90371,-0.29609 -3.75,0.0464 -0.84628,0.34241 0.14879,0.60171 2.21129,0.57623 2.0625,-0.0255 2.75492,-0.30562 1.53871,-0.62255 z m -146.25,-1.25 c -1.21621,-0.31692 -2.90371,-0.29609 -3.75,0.0464 -0.84629,0.34241 0.14879,0.60171 2.21129,0.57623 2.0625,-0.0255 2.75492,-0.30562 1.53871,-0.62255 z M 361.7559,228.018 c 0,-0.5479 -2.8125,-0.83405 -6.25,-0.6359 -5.54403,0.31959 -6.25,0.0769 -6.25,-2.14901 0,-1.67595 0.83025,-2.50929 2.5,-2.50929 1.375,0 2.50861,0.70312 2.51914,1.5625 0.0143,1.16754 0.25538,1.19107 0.95372,0.0931 0.51401,-0.80816 3.10351,-1.65191 5.75443,-1.875 l 4.81985,-0.40562 15.47642,-26.66433 c 8.51204,-14.66535 15.47644,-27.24501 15.47644,-27.95479 0,-1.57937 -4.90271,-10.84464 -7.27031,-13.7396 -0.94853,-1.1598 -1.39146,-2.64774 -0.98432,-3.30651 0.40714,-0.65879 -0.10025,-1.52033 -1.12755,-1.91454 -1.0273,-0.39421 -1.86782,-1.57815 -1.86782,-2.63099 0,-1.05282 -0.5625,-1.91422 -1.25,-1.91422 -0.6875,0 -1.25,-1.125 -1.25,-2.5 0,-1.375 -0.53611,-2.5 -1.19135,-2.5 -1.67965,0 -5.45181,-8.35258 -4.48134,-9.92284 0.4475,-0.72406 0.0825,-1.02525 -0.82488,-0.68081 -0.99199,0.37652 -2.84762,-1.70339 -4.75243,-5.32681 l -3.125,-5.94454 -24.375,-0.33665 -24.375,-0.33665 -1.67957,3.80194 c -0.92376,2.09106 -2.35136,4.49255 -3.17243,5.33665 -0.82107,0.84409 -2.48227,3.64409 -3.69157,6.22221 -1.2093,2.57812 -2.82858,4.6875 -3.59841,4.6875 -0.76983,0 -1.06274,0.33694 -0.65093,0.74876 1.23244,1.23244 -4.21541,10.56639 -5.64977,9.6799 -0.77983,-0.48196 -0.94841,-0.21597 -0.4126,0.651 1.19233,1.92921 -4.09175,10.42788 -5.81962,9.35999 -0.82262,-0.50841 -0.96821,-0.23023 -0.3787,0.72362 0.53023,0.85793 -0.0717,3.46106 -1.34873,5.83227 -1.97077,3.6595 -2.06559,4.6683 -0.6516,6.93246 0.91014,1.45736 7.81037,13.33603 15.33386,26.39702 14.95808,25.96772 17.34507,29.74574 17.34507,27.45312 0,-1.09099 3.21827,-1.52814 11.25,-1.52814 10.26084,0 11.25,0.21104 11.25,2.40026 0,2.20404 -0.91005,2.38203 -11.13229,2.17712 -10.78081,-0.21611 -11.09093,-0.14389 -9.8221,2.28723 2.47385,4.74001 15.08478,26.26075 16.31934,27.8492 0.90311,1.162 3.53845,-2.44242 9.80995,-13.41731 4.7163,-8.25336 8.5751,-15.4544 8.5751,-16.0023 z m 62.8125,30.12795 c -0.85938,-0.34676 -2.26563,-0.34676 -3.125,0 -0.85938,0.34676 -0.15625,0.63049 1.5625,0.63049 1.71875,0 2.42187,-0.28373 1.5625,-0.63049 z M 209.8809,254.5988 c 0,-2.5843 -0.60155,-3.125 -3.47673,-3.125 -4.44643,0 -5.28559,-2.30499 -2.9095,-7.99176 1.81699,-4.34868 1.79774,-4.48194 -0.47202,-3.2672 -1.53461,0.8213 -2.50256,2.91258 -2.75401,5.95017 -0.3516,4.24722 0.0783,4.99671 4.61226,8.04105 2.75,1.8465 5,3.39338 5,3.4375 0,0.0441 0,-1.32601 0,-3.04476 z m 45.9375,2.29715 c -0.85938,-0.34676 -2.26563,-0.34676 -3.125,0 -0.85938,0.34676 -0.15625,0.63049 1.5625,0.63049 1.71875,0 2.42187,-0.28373 1.5625,-0.63049 z m 180,0 c -0.85938,-0.34676 -2.26563,-0.34676 -3.125,0 -0.85938,0.34676 -0.15625,0.63049 1.5625,0.63049 1.71875,0 2.42187,-0.28373 1.5625,-0.63049 z m 53.4375,-87.40681 c 0,-75.953746 -0.1458,-81.50309 -2.1875,-83.256479 -1.20313,-1.033232 -3.03125,-2.287126 -4.0625,-2.786431 -1.03125,-0.499305 -0.8343,-0.05979 0.43768,0.976701 1.27196,1.03649 1.94189,2.484454 1.48872,3.217696 -0.45316,0.733243 0.053,1.333169 1.12482,1.333169 1.74374,0 1.94878,8.022682 1.94878,76.250004 0,66.37587 -0.2388,76.25 -1.84406,76.25 -1.48223,0 -1.59485,0.65546 -0.57399,3.34056 1.87052,4.91983 0.64025,6.65683 -4.73023,6.67858 -3.22467,0.013 -4.17231,0.3702 -2.98207,1.12385 0.95955,0.60759 1.41132,1.97331 1.00394,3.03495 -0.51994,1.35492 0.91606,0.92952 4.81785,-1.42724 l 5.55856,-3.3575 0,-81.37786 z m -244.08629,86.11842 c -1.21621,-0.31692 -2.90371,-0.29609 -3.75,0.0464 -0.84629,0.34241 0.14879,0.60171 2.21129,0.57623 2.0625,-0.0255 2.75492,-0.30562 1.53871,-0.62255 z m 200.64879,0.0384 c -0.85938,-0.34676 -2.26563,-0.34676 -3.125,0 -0.85938,0.34676 -0.15625,0.63049 1.5625,0.63049 1.71875,0 2.42187,-0.28373 1.5625,-0.63049 z m -212.5,-1.25 c -0.85938,-0.34676 -2.26563,-0.34676 -3.125,0 -0.85938,0.34676 -0.15625,0.63049 1.5625,0.63049 1.71875,0 2.42187,-0.28373 1.5625,-0.63049 z m 223.67187,-0.026 c -0.90235,-0.36109 -1.98047,-0.31669 -2.39583,0.0986 -0.41536,0.41537 0.32292,0.7108 1.64062,0.65653 1.45619,-0.06 1.75238,-0.35618 0.75521,-0.7552 z m -236.25,-1.25 c -0.90234,-0.36109 -1.98046,-0.31669 -2.39583,0.0986 -0.41536,0.41537 0.32292,0.7108 1.64063,0.65653 1.45617,-0.06 1.75237,-0.35618 0.7552,-0.7552 z m 249.42934,-0.0125 c -1.21621,-0.31692 -2.90371,-0.29609 -3.75,0.0464 -0.84628,0.34242 0.14879,0.60172 2.21129,0.57624 2.0625,-0.0255 2.75492,-0.30562 1.53871,-0.62255 z M 218.79915,240.7404 c 0.93871,0.36021 1.70675,0.15146 1.70675,-0.4639 0,-1.66054 13.40319,-7.91459 14.93415,-6.9684 0.72372,0.44729 1.31585,0.25891 1.31585,-0.41859 0,-1.73761 13.33986,-8.06674 14.93037,-7.08375 0.90892,0.56175 0.92641,-0.20346 0.0569,-2.49042 -0.69034,-1.81573 -0.93669,-3.81663 -0.54745,-4.44644 0.38924,-0.6298 0.11201,-1.1451 -0.61606,-1.1451 -0.72807,0 -1.32377,-1.0918 -1.32377,-2.42623 0,-1.33442 -0.6115,-2.80416 -1.3589,-3.26607 -0.74739,-0.46191 -1.0908,-1.86504 -0.76313,-3.11805 0.32767,-1.253 -0.10403,-2.54673 -0.95932,-2.87493 -0.85529,-0.32821 -2.62125,-4.01597 -3.92436,-8.19505 -1.30311,-4.17906 -2.79117,-7.60311 -3.30679,-7.60898 -0.51563,-0.006 -0.9375,-1.10249 -0.9375,-2.43692 0,-1.33442 -0.6115,-2.80416 -1.3589,-3.26607 -0.74739,-0.46191 -1.0908,-1.86504 -0.76313,-3.11805 0.32767,-1.253 -0.0928,-2.5424 -0.9343,-2.86534 -1.00831,-0.38692 -6.20104,11.05878 -15.22782,33.56481 l -13.69775,34.15197 5.5342,-3.08972 c 3.04381,-1.69935 6.30224,-2.795 7.24095,-2.43477 z m 250.0328,-28.52301 c -9.05494,-22.57625 -14.26135,-34.05622 -15.26971,-33.66928 -0.84154,0.32294 -1.26198,1.61234 -0.9343,2.86534 0.32766,1.25301 -0.0157,2.65614 -0.76314,3.11805 -0.7474,0.46191 -1.3589,1.93165 -1.3589,3.26607 0,1.33443 -0.42188,2.43104 -0.9375,2.43692 -0.51563,0.006 -2.00367,3.42992 -3.30679,7.60898 -1.30311,4.17908 -3.09572,7.87707 -3.98357,8.21777 -0.88785,0.3407 -1.30563,1.42382 -0.92837,2.40692 0.37725,0.98311 0.15897,2.48344 -0.48507,3.33405 -1.29259,1.70718 -4.51771,12.2505 -3.88284,12.69347 0.21953,0.15317 3.63351,1.82728 7.58664,3.72025 3.95312,1.89296 7.1875,3.99607 7.1875,4.67358 0,0.6775 0.59214,0.86588 1.31585,0.41859 1.53096,-0.94619 14.93415,5.30786 14.93415,6.9684 0,0.61536 0.77112,0.82293 1.71361,0.46126 0.94249,-0.36166 4.17686,0.75724 7.1875,2.48647 3.01064,1.72921 5.5168,3.16777 5.56924,3.1968 0.0525,0.029 -6.0875,-15.36262 -13.6443,-34.20364 z m 16.56862,-44.80609 -0.10537,-65.3125 -2.44198,5.3125 c -1.34308,2.92188 -2.93052,5.3125 -3.52765,5.3125 -0.59712,0 -0.80808,1.06152 -0.4688,2.35893 0.33928,1.29741 0.005,2.73685 -0.74202,3.19877 -0.74735,0.46191 -1.35885,1.93165 -1.35885,3.26607 0,1.33443 -0.52754,2.42623 -1.17231,2.42623 -0.64478,0 -1.10538,0.98438 -1.02355,2.1875 0.0817,1.20312 -0.73667,4.15625 -1.81887,6.5625 -1.08218,2.40625 -2.30511,5.39502 -2.71761,6.64172 -0.4125,1.2467 -1.31004,1.92062 -1.99451,1.49758 -0.72151,-0.44591 -0.92805,0.0555 -0.49148,1.19322 1.05024,2.7369 -1.93948,9.41748 -4.21457,9.41748 -2.30865,0 -1.56249,-4.75055 1.998,-12.7205 1.32793,-2.97248 2.75255,-6.42453 3.16583,-7.67123 0.41327,-1.2467 1.23663,-1.96685 1.82967,-1.60032 0.59304,0.36651 0.81269,-0.72284 0.48811,-2.42078 -0.34257,-1.79202 -0.005,-3.08717 0.80557,-3.08717 0.76765,0 1.32047,-0.42188 1.22849,-0.9375 -0.33295,-1.8666 1.76653,-9.13083 2.82868,-9.78728 0.5987,-0.37002 1.08855,-1.76457 1.08855,-3.09899 0,-1.33443 0.5625,-2.42623 1.25,-2.42623 0.6875,0 1.26235,-0.98437 1.27745,-2.1875 0.0151,-1.20312 1.10824,-4.56838 2.4292,-7.478354 l 2.40174,-5.290848 -9.6167,4.819683 c -5.28918,2.650829 -12.14794,5.969749 -15.24169,7.375379 -3.09375,1.40564 -9.06115,4.18446 -13.2609,6.17517 l -7.6359,3.61947 8.9151,22.61137 c 7.61446,19.31255 9.19102,22.40125 10.8064,21.17102 1.04021,-0.79222 1.69905,-2.37232 1.46409,-3.51134 -0.52155,-2.52829 1.14022,-3.7385 3.30031,-2.40349 1.24236,0.76783 0.96936,2.31601 -1.23554,7.00674 l -2.83027,6.02115 2.6163,6.97327 c 5.21256,13.89319 23.49315,60.03273 23.79791,60.06509 0.17187,0.0182 0.2651,-29.35744 0.20717,-65.27931 z m -256.20465,-1.01521 c 0.033,-1.07399 -1.07974,-4.31167 -2.47274,-7.19484 -1.39299,-2.88316 -2.86955,-6.92631 -3.28125,-8.98479 -0.41169,-2.05846 -1.30629,-3.74266 -1.988,-3.74266 -0.68171,0 -0.97391,-1.38923 -0.64932,-3.08718 0.32458,-1.69793 0.10493,-2.78728 -0.48811,-2.42077 -0.59304,0.36652 -1.40654,-0.35363 -1.80778,-1.60033 -0.97029,-3.01486 -3.02436,-7.98933 -4.44101,-10.75507 -0.63058,-1.23109 -0.813,-2.77796 -0.40539,-3.4375 0.40762,-0.65952 0.14542,-1.19915 -0.58265,-1.19915 -0.72807,0 -1.32377,-1.0918 -1.32377,-2.42623 0,-1.33442 -0.6115,-2.80416 -1.3589,-3.26607 -0.74739,-0.46192 -1.0813,-1.90136 -0.74202,-3.19877 0.33928,-1.29741 0.10864,-2.35893 -0.51252,-2.35893 -0.62116,0 -1.92887,-1.82812 -2.90601,-4.0625 -1.56664,-3.58236 -1.78158,3.32431 -1.8186,58.4375 l -0.042,62.5 12.38004,-30.625 c 6.80902,-16.84375 12.40703,-31.50373 12.44002,-32.57771 z m 92.53218,60.39021 c -0.0153,-0.51563 -1.18719,-2.34375 -2.60424,-4.0625 l -2.57646,-3.125 2.24876,4.0625 c 2.26253,4.08739 2.98325,4.85556 2.93195,3.125 z m 89.05834,-82.1875 c 5.86706,-10.3125 11.91591,-20.85937 13.4419,-23.4375 l 2.7745,-4.6875 -27.15153,0 c -23.88963,0 -26.96616,0.22334 -25.60862,1.85908 0.8486,1.0225 1.21896,2.70325 0.82304,3.73501 -0.39592,1.03176 -0.11238,1.74205 0.63018,1.57841 1.6898,-0.37237 6.36134,7.57864 5.3829,9.16177 -0.39625,0.64115 0.15649,1.16573 1.22832,1.16573 1.11543,0 1.94877,1.06905 1.94877,2.5 0,1.375 0.53611,2.5 1.19135,2.5 0.65525,0 2.17281,2.10937 3.37238,4.6875 1.19956,2.57812 2.5326,4.96875 2.96232,5.3125 0.42971,0.34375 1.16699,1.46875 1.63838,2.5 0.47138,1.03125 2.00825,3.77911 3.41526,6.10636 1.407,2.32724 2.21259,5.13974 1.7902,6.25 -1.7141,4.50543 1.9781,-1.33357 12.16065,-19.23136 z m -119.85006,16.56026 c -1.14248,-1.84858 3.71449,-9.80117 5.5547,-9.09501 0.92295,0.35416 1.2925,0.0613 0.84214,-0.66741 -0.97049,-1.57027 2.80168,-9.92284 4.48133,-9.92284 0.65524,0 1.19135,-1.125 1.19135,-2.5 0,-1.375 0.42981,-2.5 0.95512,-2.5 0.52532,0 1.9299,-2.25 3.12129,-5 1.19139,-2.75 2.69121,-5 3.33294,-5 0.64172,0 1.35987,-1.26562 1.59589,-2.8125 0.23601,-1.54687 1.06119,-2.6911 1.83374,-2.54273 0.81966,0.15742 1.13701,-0.75358 0.76203,-2.1875 -0.61311,-2.34453 -1.84588,-2.45727 -26.87027,-2.45727 l -26.22768,0 2.39288,4.0625 c 1.31609,2.23438 7.33954,12.54687 13.38547,22.91666 6.04592,10.3698 11.74994,18.85418 12.6756,18.85418 0.92566,0 1.36372,-0.51664 0.97347,-1.14808 z m -42.03893,-47.08065 c -0.8341,-0.28622 -11.16542,-5.14834 -22.95849,-10.80472 l -21.44193,-10.284323 2.35198,5.179709 c 1.29359,2.848854 2.36434,6.164104 2.37944,7.367224 0.0151,1.20313 0.58995,2.1875 1.27745,2.1875 0.6875,0 1.25,1.0918 1.25,2.42623 0,1.33443 0.59364,2.79312 1.31921,3.24155 0.72557,0.44842 1.12697,1.74724 0.892,2.88627 -0.23496,1.13902 0.39154,2.69548 1.39223,3.45879 1.00069,0.76331 1.86491,3.37931 1.9205,5.81334 0.0556,2.43402 0.52691,4.16447 1.04739,3.84543 0.52048,-0.31904 1.28446,0.43997 1.69774,1.68666 0.41328,1.2467 1.83154,4.68522 3.15168,7.64114 1.32015,2.95593 2.06984,5.90905 1.66598,6.5625 -0.40385,0.65345 -0.073,1.18809 0.73522,1.18809 0.88553,0 1.23679,1.21731 0.88391,3.06329 -0.34889,1.82508 -0.0288,2.96191 0.79178,2.8125 0.75755,-0.13794 1.3357,0.98687 1.28479,2.49956 -0.0509,1.51269 0.37493,2.46141 0.94632,2.10828 0.5714,-0.35315 1.40783,0.31932 1.85874,1.49436 0.54432,1.41847 3.88649,-5.59112 9.94522,-20.85828 6.1936,-15.60701 8.63815,-23.1619 7.60884,-23.5151 z m 9.50053,-0.21893 c 0.34277,-1.31076 0.25415,-2.59461 -0.19693,-2.85302 -1.77207,-1.01514 -4.57436,1.2308 -4.6503,3.72706 -0.10185,3.34807 3.9334,2.62045 4.84723,-0.87404 z m 176.55339,0.78396 c -0.0661,-2.38885 -2.88398,-4.64052 -4.59033,-3.66806 -0.42343,0.24131 -0.52152,1.73789 -0.21799,3.32573 0.70076,3.66578 4.90866,3.96537 4.80832,0.34233 z M 260.5059,107.0988 c 0.85586,-1.03125 1.27486,-1.875 0.93111,-1.875 -0.34375,0 -1.32525,0.84375 -2.18111,1.875 -0.85586,1.03125 -1.27486,1.875 -0.93111,1.875 0.34375,0 1.32525,-0.84375 2.18111,-1.875 z m 61.79122,-2.5 c 1.14184,-2.40625 2.64538,-4.375 3.34119,-4.375 0.69583,0 0.94551,-0.517154 0.55488,-1.149224 -0.39065,-0.63208 0.0194,-1.897704 0.91115,-2.812505 0.89177,-0.914801 2.62551,-3.632025 3.85273,-6.038275 4.33363,-8.497048 5.80877,-10.621364 7.13959,-10.281529 0.73979,0.188909 0.97358,-0.257606 0.51954,-0.992256 -0.45404,-0.73465 -0.10338,-2.205883 0.77929,-3.269405 1.40848,-1.697128 0.99687,-1.889785 -3.36473,-1.574868 -2.73324,0.197347 -5.60894,-0.03636 -6.39044,-0.519353 -0.7815,-0.482992 -1.60956,-0.364095 -1.84016,0.264213 -0.2306,0.628309 -3.23176,1.463822 -6.66926,1.856697 -3.4375,0.392873 -10.74871,1.242112 -16.24713,1.887197 -5.49842,0.645086 -10.27967,1.152715 -10.625,1.128066 -5.95874,-0.425318 -7.40109,0.711897 -18.51762,14.600107 -6.31689,7.891885 -11.48525,14.641885 -11.48525,15.000005 0,0.35812 12.59216,0.65113 27.98257,0.65113 l 27.98258,0 2.07608,-4.375 z m 101.95878,3.65783 c 0,-0.38514 -5.07686,-7.05133 -11.28191,-14.813769 l -11.28192,-14.113513 -8.31558,-0.776522 c -4.57358,-0.427086 -8.76935,-1.491461 -9.32395,-2.365276 -0.80243,-1.264293 -1.01227,-1.24937 -1.0275,0.07306 -0.0132,1.148985 -1.07994,1.44346 -3.45664,0.954235 -1.89063,-0.389171 -6.7893,-1.012545 -10.88595,-1.385275 -4.09665,-0.37273 -7.7529,-1.083386 -8.125,-1.579235 -0.3721,-0.495846 -3.32233,-0.901541 -6.55604,-0.901541 -5.87117,0 -5.87679,0.0041 -3.96752,2.913485 1.05158,1.602418 1.60823,3.705045 1.23698,4.672505 -0.37124,0.967461 -0.0484,1.625142 0.71765,1.461515 0.76597,-0.163628 2.57384,1.952495 4.01752,4.702495 1.44367,2.75 3.04673,5.1875 3.56236,5.416666 0.51562,0.229168 0.9375,1.494793 0.9375,2.8125 0,1.317709 0.5213,2.395834 1.15845,2.395834 1.15141,0 5.09155,6.919886 5.09155,8.942056 0,2.19677 -4.0125,0.94915 -4.63781,-1.44205 -0.35958,-1.375 -1.15066,-2.5 -1.75798,-2.5 -0.60731,0 -1.10421,-1.125 -1.10421,-2.5 0,-1.375004 -0.53611,-2.500006 -1.19135,-2.500006 -0.65525,0 -2.17281,-2.109375 -3.37238,-4.6875 -1.19956,-2.578125 -2.57067,-4.96875 -3.04692,-5.3125 -0.47625,-0.34375 -2.08926,-2.97731 -3.58446,-5.852356 -1.4952,-2.875046 -3.63345,-5.968796 -4.75167,-6.875 -1.68737,-1.367455 -1.8623,-1.363839 -1.02863,0.02126 1.03325,1.716719 -2.75877,10.206098 -4.55884,10.206098 -0.53116,0 -0.96575,1.125 -0.96575,2.5 0,1.375 -0.5625,2.5 -1.25,2.5 -0.6875,0 -1.25,0.815799 -1.25,1.812888 0,0.997087 -0.98438,2.386232 -2.1875,3.086988 -1.20313,0.700756 -1.77465,1.291208 -1.27006,1.312113 0.50458,0.02091 -0.25458,2.286571 -1.68704,5.034815 -1.43246,2.74824 -3.1045,4.68778 -3.71563,4.31008 -0.61112,-0.3777 -0.77993,0.17636 -0.37513,1.23125 0.64418,1.67874 6.87908,1.91966 49.98567,1.93147 27.08733,0.007 49.24969,-0.30162 49.24969,-0.68677 z M 264.01186,95.750071 c 12.52935,-15.3016 12.40701,-14.993647 5.74585,-14.462908 -4.20584,0.335108 -5.50181,0.0056 -5.50181,-1.398947 0,-1.788903 5.37693,-3.281301 12.5,-3.46945 2.48878,-0.06574 5.98112,-3.694967 17.15387,-17.826256 7.71588,-9.759043 18.26276,-23.009695 23.4375,-29.445894 5.17474,-6.436199 9.40863,-11.966451 9.40863,-12.289449 0,-0.322999 -1.82813,0.525228 -4.0625,1.884945 -5.52929,3.364825 -28.40036,16.909225 -71.21225,42.172369 -22.18193,13.089478 -35.87646,21.90078 -35.83882,23.059315 0.0413,1.271986 0.26371,1.372489 0.69142,0.3125 0.85571,-2.12068 5.42215,-1.992046 5.42215,0.15274 0,1.04995 -2.06056,2.048172 -5.3125,2.573602 l -5.3125,0.858363 14.375,6.788456 c 7.90625,3.733649 17.1875,8.164303 20.625,9.845883 3.4375,1.68159 6.8125,2.90861 7.5,2.72672 0.6875,-0.18189 5.35893,-5.34879 10.38096,-11.481989 z M 223.0059,84.231023 c 0,-2.029688 0.88224,-2.474693 5.01938,-2.53179 2.76067,-0.0381 6.20589,-0.445854 7.65606,-0.906121 1.64598,-0.522413 3.04052,-0.199498 3.71148,0.859419 0.67339,1.062754 1.08195,1.156519 1.09394,0.251063 0.0106,-0.804979 2.92632,-1.797126 6.58164,-2.239612 3.60937,-0.436925 8.67187,-1.101652 11.25,-1.47717 4.04683,-0.589444 4.6875,-0.349781 4.6875,1.7535 0,2.079015 -1.1431,2.539915 -7.79543,3.143128 -5.3075,0.481266 -8.09398,0.23747 -8.73086,-0.76389 -0.69361,-1.090547 -0.94038,-1.097152 -0.95457,-0.02555 -0.0106,0.804978 -2.92632,1.797125 -6.58164,2.239611 -3.60938,0.436925 -8.67188,1.101652 -11.25,1.47717 -4.06144,0.59157 -4.6875,0.353864 -4.6875,-1.779758 z m 233.13686,13.805273 c 11.45583,-5.328125 19.9365,-9.86937 18.84595,-10.091655 -2.27712,-0.464144 -2.73022,-3.970845 -0.51306,-3.970845 0.80835,0 -5.80103,-4.297696 -14.6875,-9.550438 -27.15224,-16.0495 -89.64643,-53.099797 -94.19106,-55.842101 -2.69342,-1.625248 -3.87859,-1.929252 -3.19233,-0.81885 3.28517,5.315505 46.23547,57.783263 47.78988,58.379746 1.01513,0.389549 3.32858,0.816735 5.14098,0.949303 1.8124,0.132566 4.5609,0.329075 6.10778,0.436685 1.66381,0.11575 2.8125,1.012854 2.8125,2.196522 0,1.604505 -1.1149,1.912195 -5.62809,1.553248 -3.09544,-0.246191 -5.48606,-0.122463 -5.3125,0.274955 0.79025,1.809394 20.40974,25.988884 21.15713,26.074514 0.46285,0.053 10.21449,-4.26295 21.67032,-9.591084 z m -3.70172,-12.992675 c -4.77941,-0.612662 -9.0707,-1.730156 -9.53619,-2.483319 -0.49669,-0.803657 -1.03794,-0.873428 -1.31014,-0.168886 -0.26224,0.678771 -3.85907,0.946569 -8.27631,0.616201 -6.60544,-0.494022 -7.8125,-0.947345 -7.8125,-2.93406 0,-1.292369 0.15539,-2.349761 0.34529,-2.349761 5.1561,0 21.73511,3.059283 22.42046,4.137189 0.70727,1.112406 0.9508,1.079269 0.96511,-0.13133 0.0132,-1.120409 1.27048,-1.425368 4.08164,-0.990051 2.23437,0.345999 7.29687,0.974463 11.25,1.396587 5.0363,0.537786 7.1875,1.301759 7.1875,2.55255 0,2.195486 -4.55069,2.382271 -5.42215,0.222555 -0.50439,-1.25 -0.65021,-1.25 -0.72916,0 -0.10913,1.727185 -0.67738,1.732898 -13.16355,0.132325 z M 265.5059,100.8488 c 0.85586,-1.031254 1.27486,-1.875004 0.93111,-1.875004 -0.34375,0 -1.32525,0.84375 -2.18111,1.875004 -0.85586,1.03125 -1.27486,1.875 -0.93111,1.875 0.34375,0 1.32525,-0.84375 2.18111,-1.875 z m 10,-12.500004 c 0.85586,-1.03125 1.27486,-1.875 0.93111,-1.875 -0.34375,0 -1.32525,0.84375 -2.18111,1.875 -0.85586,1.03125 -1.27486,1.875 -0.93111,1.875 0.34375,0 1.32525,-0.84375 2.18111,-1.875 z m -71.66939,-0.21106 c -0.45984,-0.459834 0.14954,-1.987566 1.35416,-3.39496 2.16145,-2.525275 2.15007,-2.533415 -0.86626,-0.619462 -3.8105,2.417873 -4.73296,4.850482 -1.83934,4.850482 1.20312,0 1.81127,-0.376228 1.35144,-0.83606 z M 410.5059,83.501852 c 0,-0.25957 -0.98438,-1.243945 -2.1875,-2.1875 -1.98258,-1.554838 -2.02679,-1.510626 -0.47195,0.471944 1.63296,2.082185 2.65945,2.744349 2.65945,1.715556 z M 309.66006,72.628157 c 2.18396,-0.0526 5.09584,-0.318877 6.47084,-0.591723 1.375,-0.272847 6.4375,-0.871309 11.25,-1.329916 4.8125,-0.458607 9.72291,-0.930872 10.91204,-1.049479 3.43323,-0.342443 3.95192,-1.560921 3.76246,-8.838748 -0.15508,-5.957208 0.13019,-6.844495 2.2005,-6.844495 2.06038,0 2.35561,0.885497 2.2064,6.617477 -0.17073,6.558677 0.87551,10.192967 2.62337,9.112729 0.49887,-0.308315 4.81938,-0.07187 9.60113,0.525418 4.78175,0.597295 11.1928,1.384618 14.24677,1.749608 12.58295,1.503829 16.3233,2.350527 16.34147,3.699198 0.0113,0.832401 0.47321,0.703589 1.11583,-0.311114 0.75079,-1.185509 2.19349,-1.456406 4.57416,-0.858897 2.7764,0.696832 3.21043,0.54194 2.15297,-0.768316 -0.72845,-0.902607 -12.12248,-15.141103 -25.32004,-31.641103 -21.17879,-26.478369 -24.41186,-30 -27.54185,-30 -3.52966,0 -7.12816,4.194745 -52.76919,61.51277 -0.90439,1.135771 -0.13308,1.416621 3.09501,1.126958 2.36478,-0.212197 4.91261,-0.764675 5.66185,-1.227729 0.74924,-0.463055 2.0991,-0.04115 2.99969,0.93756 1.39638,1.517512 1.69693,1.521555 2.04159,0.02746 0.23594,-1.022823 2.05683,-1.791823 4.375,-1.847657 z m 32.37361,-28.029361 c 0,-6.828545 0.34067,-8.125 2.13494,-8.125 1.78339,0 2.15239,1.337849 2.24098,8.125 0.0916,7.01806 -0.19927,8.125 -2.13494,8.125 -1.92479,0 -2.24098,-1.146375 -2.24098,-8.125 z m -0.27777,-11.875 c 0,-1.666666 0.83334,-2.5 2.5,-2.5 1.66666,0 2.5,0.833334 2.5,2.5 0,1.666666 -0.83334,2.5 -2.5,2.5 -1.66666,0 -2.5,-0.833334 -2.5,-2.5 z m 0.27777,-11.875 c 0,-7.132352 0.28847,-8.125 2.36112,-8.125 2.07265,0 2.36111,0.992647 2.36111,8.125 0,7.132352 -0.28846,8.125 -2.36111,8.125 -2.07265,0 -2.36112,-0.992648 -2.36112,-8.125 z m 49.72223,38.903056 c 0,-0.25957 -0.98438,-1.243945 -2.1875,-2.1875 -1.98258,-1.554838 -2.02679,-1.510626 -0.47195,0.471944 1.63296,2.082185 2.65945,2.744349 2.65945,1.715556 z m -6.25,-7.5 c 0,-0.25957 -0.98438,-1.243945 -2.1875,-2.1875 -1.98258,-1.554838 -2.02679,-1.510626 -0.47195,0.471944 1.63296,2.082185 2.65945,2.744349 2.65945,1.715556 z m -3.75,-4.959321 c 0,-0.237196 -1.26563,-1.502821 -2.8125,-2.8125 l -2.8125,-2.381235 2.38124,2.8125 c 2.23777,2.643056 3.24376,3.381551 3.24376,2.381235 z m -61.25,-15.193735 c 0.85586,-1.03125 1.27486,-1.875 0.93111,-1.875 -0.34375,0 -1.32525,0.84375 -2.18111,1.875 -0.85586,1.03125 -1.27486,1.875 -0.93111,1.875 0.34375,0 1.32525,-0.84375 2.18111,-1.875 z m 50,1.403056 c 0,-0.25957 -0.98438,-1.243945 -2.1875,-2.1875 -1.98258,-1.554838 -2.02679,-1.510626 -0.47195,0.471944 1.63296,2.082185 2.65945,2.744349 2.65945,1.715556 z m -15,-18.75 c 0,-0.25957 -0.98438,-1.243945 -2.1875,-2.1875 -1.98258,-1.554838 -2.02679,-1.510626 -0.47195,0.471944 1.63296,2.082185 2.65945,2.744349 2.65945,1.715556 z M 339.99585,7.0987961 c 2.58955,-3.9521641 5.3427,-3.9682221 8.5881,-0.050091 2.07181,2.501286 2.81816,2.766018 4.00077,1.419096 1.1529,-1.3130807 0.44302,-2.2239174 -3.42961,-4.4004589 l -4.88345,-2.744647 -4.80936,2.8880505 c -2.64515,1.5884278 -4.57058,3.5911754 -4.27872,4.4505504 0.82369,2.4253609 2.57107,1.8580049 4.81227,-1.5624998 z"
     id="path4138"
     inkscape:connector-curvature="0" />
</svg>
